# .PCD v0.7 - Point Cloud Data file format
VERSION 0.7
FIELDS x y z
SIZE 4 4 4
TYPE F F F
COUNT 1 1 1
WIDTH 38
HEIGHT 1
VIEWPOINT 0 0 0 1 0 0 0
POINTS 38
DATA ascii
0.0390000008 -0.05700000003 0.01099999994
0.04300000146 -0.0549999997 0.01099999994
0.04500000179 -0.05099999905 0.01099999994
0.04300000146 -0.0549999997 0.01300000027
0.04500000179 -0.05099999905 0.01300000027
0.04699999839 -0.04899999872 0.01300000027
0.04699999839 -0.04899999872 0.01499999966
0.04899999872 -0.04899999872 0.01099999994
0.05099999905 -0.04699999839 0.01099999994
0.05299999937 -0.04500000179 0.01099999994
0.05299999937 -0.04300000146 0.01099999994
0.0549999997 -0.04100000113 0.01099999994
0.04899999872 -0.04699999839 0.01300000027
0.05099999905 -0.04500000179 0.01300000027
0.04899999872 -0.04699999839 0.01499999966
0.05099999905 -0.04500000179 0.01499999966
0.05299999937 -0.04300000146 0.01300000027
0.0549999997 -0.04100000113 0.01300000027
0.05299999937 -0.04300000146 0.01499999966
0.0549999997 -0.04100000113 0.01499999966
0.0549999997 -0.0390000008 0.01300000027
0.0549999997 -0.0390000008 0.01499999966
0.05700000003 -0.0390000008 0.01099999994
0.05700000003 -0.03700000048 0.01099999994
0.05900000036 -0.03299999982 0.01099999994
0.06100000069 -0.03299999982 0.01099999994
0.05700000003 -0.03700000048 0.01300000027
0.05700000003 -0.03700000048 0.01499999966
0.05900000036 -0.03500000015 0.01300000027
0.05900000036 -0.03299999982 0.01300000027
0.05700000003 -0.03500000015 0.01499999966
0.06100000069 -0.03099999949 0.01099999994
0.06100000069 -0.02899999917 0.01099999994
0.06300000101 -0.02899999917 0.01099999994
0.06300000101 -0.0270000007 0.01099999994
0.06300000101 -0.02500000037 0.01099999994
0.06100000069 -0.03099999949 0.01300000027
0.06100000069 -0.02899999917 0.01300000027
