# .PCD v0.7 - Point Cloud Data file format
VERSION 0.7
FIELDS x y z
SIZE 4 4 4
TYPE F F F
COUNT 1 1 1
WIDTH 2166
HEIGHT 1
VIEWPOINT 0 0 0 1 0 0 0
POINTS 2166
DATA ascii
-0.004999999888 -0.3050000072 0.01099999994
-0.001000000047 -0.3070000112 0.01099999994
-0.007000000216 -0.3030000031 0.01099999994
-0.007000000216 -0.298999995 0.01099999994
-0.007000000216 -0.2969999909 0.01099999994
-0.007000000216 -0.3030000031 0.01499999966
-0.007000000216 -0.300999999 0.01499999966
-0.007000000216 -0.298999995 0.01300000027
-0.007000000216 -0.298999995 0.01499999966
-0.007000000216 -0.2969999909 0.01499999966
-0.003000000026 -0.2930000126 0.01099999994
-0.001000000047 -0.2930000126 0.01099999994
-0.004999999888 -0.2949999869 0.01300000027
-0.003000000026 -0.2930000126 0.01300000027
-0.001000000047 -0.2930000126 0.01300000027
-0.001000000047 -0.2930000126 0.01499999966
-0.004999999888 -0.3050000072 0.01700000092
-0.001000000047 -0.3070000112 0.01700000092
-0.003000000026 -0.3070000112 0.01899999939
-0.001000000047 -0.3070000112 0.01899999939
-0.007000000216 -0.3050000072 0.02099999972
-0.004999999888 -0.3050000072 0.02099999972
-0.004999999888 -0.3050000072 0.02300000004
-0.003000000026 -0.3070000112 0.02099999972
-0.004999999888 -0.3050000072 0.02500000037
-0.001000000047 -0.3070000112 0.02500000037
-0.001000000047 -0.3070000112 0.0270000007
-0.004999999888 -0.3050000072 0.03099999949
-0.003000000026 -0.3070000112 0.03099999949
-0.001000000047 -0.3070000112 0.03099999949
-0.007000000216 -0.3030000031 0.01700000092
-0.007000000216 -0.300999999 0.01700000092
-0.007000000216 -0.300999999 0.01899999939
-0.007000000216 -0.298999995 0.01700000092
-0.007000000216 -0.2969999909 0.01700000092
-0.007000000216 -0.298999995 0.01899999939
-0.007000000216 -0.300999999 0.02099999972
-0.007000000216 -0.2969999909 0.02099999972
-0.007000000216 -0.298999995 0.02300000004
-0.007000000216 -0.2969999909 0.02300000004
-0.004999999888 -0.2949999869 0.01700000092
-0.001000000047 -0.2930000126 0.01899999939
-0.004999999888 -0.2930000126 0.02099999972
-0.004999999888 -0.2949999869 0.02300000004
-0.003000000026 -0.2930000126 0.02099999972
-0.001000000047 -0.2930000126 0.02099999972
-0.003000000026 -0.2930000126 0.02300000004
-0.007000000216 -0.300999999 0.02500000037
-0.007000000216 -0.298999995 0.02500000037
-0.007000000216 -0.2969999909 0.0270000007
-0.007000000216 -0.3030000031 0.02899999917
-0.007000000216 -0.300999999 0.02899999917
-0.007000000216 -0.300999999 0.03099999949
-0.007000000216 -0.298999995 0.02899999917
-0.007000000216 -0.2969999909 0.02899999917
-0.007000000216 -0.298999995 0.03099999949
-0.004999999888 -0.2949999869 0.02500000037
-0.003000000026 -0.2930000126 0.02500000037
-0.001000000047 -0.2930000126 0.0270000007
-0.004999999888 -0.2949999869 0.02899999917
-0.001000000047 -0.2930000126 0.03099999949
-0.004999999888 -0.3050000072 0.03299999982
-0.004999999888 -0.3050000072 0.03500000015
-0.004999999888 -0.3050000072 0.03700000048
-0.004999999888 -0.3050000072 0.0390000008
-0.001000000047 -0.3070000112 0.0390000008
-0.004999999888 -0.3050000072 0.04100000113
-0.001000000047 -0.3070000112 0.04100000113
-0.004999999888 -0.3050000072 0.04699999839
-0.001000000047 -0.3070000112 0.04500000179
-0.001000000047 -0.3070000112 0.04699999839
-0.007000000216 -0.3030000031 0.03500000015
-0.007000000216 -0.300999999 0.03500000015
-0.007000000216 -0.298999995 0.03299999982
-0.007000000216 -0.298999995 0.03500000015
-0.007000000216 -0.2969999909 0.03500000015
-0.007000000216 -0.300999999 0.03700000048
-0.007000000216 -0.298999995 0.03700000048
-0.007000000216 -0.2949999869 0.03299999982
-0.004999999888 -0.2930000126 0.03299999982
-0.001000000047 -0.2930000126 0.03299999982
-0.003000000026 -0.2930000126 0.03500000015
-0.001000000047 -0.2930000126 0.03500000015
-0.004999999888 -0.2949999869 0.03700000048
-0.003000000026 -0.2930000126 0.03700000048
-0.001000000047 -0.2930000126 0.03700000048
-0.007000000216 -0.300999999 0.04100000113
-0.007000000216 -0.3030000031 0.04300000146
-0.007000000216 -0.300999999 0.04300000146
-0.007000000216 -0.298999995 0.04100000113
-0.007000000216 -0.2969999909 0.04100000113
-0.007000000216 -0.298999995 0.04300000146
-0.007000000216 -0.3030000031 0.04699999839
-0.007000000216 -0.300999999 0.04699999839
-0.007000000216 -0.298999995 0.04500000179
-0.007000000216 -0.2969999909 0.04699999839
-0.004999999888 -0.2949999869 0.04100000113
-0.003000000026 -0.2930000126 0.04300000146
-0.007000000216 -0.2949999869 0.04500000179
-0.004999999888 -0.2949999869 0.04500000179
-0.003000000026 -0.2930000126 0.04500000179
-0.001000000047 -0.2930000126 0.04500000179
-0.003000000026 -0.2930000126 0.04699999839
-0.001000000047 -0.2930000126 0.04699999839
-0.004999999888 -0.3050000072 0.04899999872
-0.004999999888 -0.3050000072 0.05099999905
-0.003000000026 -0.3070000112 0.05099999905
-0.001000000047 -0.3070000112 0.05099999905
-0.004999999888 -0.3070000112 0.05299999937
-0.004999999888 -0.3050000072 0.05299999937
-0.001000000047 -0.3070000112 0.0549999997
-0.004999999888 -0.3050000072 0.05900000036
-0.001000000047 -0.3070000112 0.05700000003
-0.001000000047 -0.3070000112 0.05900000036
-0.004999999888 -0.3050000072 0.06100000069
-0.007000000216 -0.3050000072 0.06300000101
-0.003000000026 -0.3070000112 0.06100000069
-0.001000000047 -0.3070000112 0.06100000069
-0.007000000216 -0.300999999 0.04899999872
-0.007000000216 -0.298999995 0.04899999872
-0.007000000216 -0.298999995 0.05099999905
-0.007000000216 -0.2969999909 0.05099999905
-0.007000000216 -0.300999999 0.05299999937
-0.007000000216 -0.3030000031 0.0549999997
-0.007000000216 -0.300999999 0.0549999997
-0.007000000216 -0.298999995 0.05299999937
-0.004999999888 -0.2949999869 0.04899999872
-0.001000000047 -0.2930000126 0.04899999872
-0.004999999888 -0.2949999869 0.05299999937
-0.001000000047 -0.2930000126 0.05299999937
-0.003000000026 -0.2930000126 0.0549999997
-0.001000000047 -0.2930000126 0.0549999997
-0.007000000216 -0.3030000031 0.05900000036
-0.007000000216 -0.298999995 0.05900000036
-0.007000000216 -0.2969999909 0.05900000036
-0.007000000216 -0.300999999 0.06100000069
-0.007000000216 -0.3030000031 0.06300000101
-0.007000000216 -0.300999999 0.06300000101
-0.007000000216 -0.298999995 0.06300000101
-0.007000000216 -0.2969999909 0.06300000101
-0.007000000216 -0.2949999869 0.05700000003
-0.001000000047 -0.2930000126 0.05700000003
-0.003000000026 -0.2930000126 0.05900000036
-0.001000000047 -0.2930000126 0.05900000036
-0.004999999888 -0.2949999869 0.06100000069
-0.004999999888 -0.2949999869 0.06300000101
-0.004999999888 -0.3050000072 0.06499999762
-0.004999999888 -0.3050000072 0.06700000167
-0.001000000047 -0.3070000112 0.06700000167
-0.004999999888 -0.3050000072 0.07100000232
-0.001000000047 -0.3070000112 0.06899999827
-0.003000000026 -0.3070000112 0.07100000232
-0.001000000047 -0.3070000112 0.07100000232
-0.004999999888 -0.3050000072 0.07299999893
-0.004999999888 -0.3050000072 0.07699999958
-0.004999999888 -0.3050000072 0.07900000364
-0.001000000047 -0.3070000112 0.07699999958
-0.001000000047 -0.3070000112 0.07900000364
-0.007000000216 -0.300999999 0.06499999762
-0.007000000216 -0.298999995 0.06499999762
-0.007000000216 -0.300999999 0.06899999827
-0.007000000216 -0.3030000031 0.07100000232
-0.007000000216 -0.300999999 0.07100000232
-0.007000000216 -0.298999995 0.06899999827
-0.007000000216 -0.2969999909 0.06899999827
-0.007000000216 -0.298999995 0.07100000232
-0.007000000216 -0.2949999869 0.06700000167
-0.003000000026 -0.2930000126 0.06499999762
-0.001000000047 -0.2930000126 0.06499999762
-0.003000000026 -0.2930000126 0.06700000167
-0.001000000047 -0.2930000126 0.06700000167
-0.004999999888 -0.2949999869 0.06899999827
-0.004999999888 -0.2949999869 0.07100000232
-0.003000000026 -0.2930000126 0.06899999827
-0.001000000047 -0.2930000126 0.06899999827
-0.001000000047 -0.2930000126 0.07100000232
-0.007000000216 -0.3030000031 0.07500000298
-0.007000000216 -0.300999999 0.07500000298
-0.007000000216 -0.2969999909 0.07299999893
-0.007000000216 -0.2969999909 0.07500000298
-0.007000000216 -0.300999999 0.07699999958
-0.007000000216 -0.298999995 0.07699999958
-0.004999999888 -0.2949999869 0.07500000298
-0.003000000026 -0.2930000126 0.07500000298
-0.001000000047 -0.2930000126 0.07500000298
-0.004999999888 -0.2949999869 0.07699999958
-0.003000000026 -0.2930000126 0.07699999958
-0.003000000026 -0.2949999869 0.07900000364
-0.003000000026 -0.2930000126 0.07900000364
-0.001000000047 -0.2930000126 0.07900000364
-0.004999999888 -0.3050000072 0.08100000024
-0.001000000047 -0.3070000112 0.08100000024
-0.001000000047 -0.3070000112 0.08299999684
-0.004999999888 -0.3050000072 0.0869999975
-0.001000000047 -0.3070000112 0.08500000089
-0.003000000026 -0.3070000112 0.0869999975
-0.001000000047 -0.3070000112 0.0869999975
-0.004999999888 -0.3050000072 0.08900000155
-0.003000000026 -0.3070000112 0.08900000155
-0.001000000047 -0.3070000112 0.08900000155
-0.007000000216 -0.3030000031 0.08100000024
-0.007000000216 -0.300999999 0.08100000024
-0.007000000216 -0.300999999 0.08299999684
-0.007000000216 -0.298999995 0.08100000024
-0.007000000216 -0.2969999909 0.08100000024
-0.004999999888 -0.2969999909 0.08100000024
-0.007000000216 -0.3030000031 0.08500000089
-0.007000000216 -0.300999999 0.0869999975
-0.007000000216 -0.298999995 0.08500000089
-0.007000000216 -0.2969999909 0.08500000089
-0.004999999888 -0.2969999909 0.08500000089
-0.007000000216 -0.298999995 0.0869999975
-0.007000000216 -0.2969999909 0.0869999975
-0.004999999888 -0.2949999869 0.08100000024
-0.001000000047 -0.2930000126 0.08100000024
-0.003000000026 -0.2949999869 0.08299999684
-0.004999999888 -0.2930000126 0.08500000089
-0.004999999888 -0.2949999869 0.0869999975
-0.003000000026 -0.2949999869 0.08500000089
-0.001000000047 -0.2930000126 0.08500000089
-0.003000000026 -0.2930000126 0.0869999975
-0.007000000216 -0.3030000031 0.08900000155
-0.007000000216 -0.298999995 0.08900000155
-0.007000000216 -0.2969999909 0.08900000155
-0.004999999888 -0.2949999869 0.08900000155
-0.003000000026 -0.2930000126 0.08900000155
-0.001000000047 -0.2930000126 0.08900000155
-0.001000000047 -0.3289999962 0.3970000148
-0.001000000047 -0.3310000002 0.398999989
-0.001000000047 -0.3289999962 0.398999989
-0.001000000047 -0.3249999881 0.3950000107
-0.001000000047 -0.3230000138 0.3930000067
-0.001000000047 -0.3230000138 0.3950000107
-0.001000000047 -0.3210000098 0.3950000107
-0.001000000047 -0.3269999921 0.3970000148
-0.001000000047 -0.3249999881 0.3970000148
-0.001000000047 -0.3269999921 0.398999989
-0.001000000047 -0.3249999881 0.398999989
-0.001000000047 -0.3230000138 0.3970000148
-0.001000000047 -0.3210000098 0.3970000148
-0.001000000047 -0.3230000138 0.398999989
-0.001000000047 -0.3210000098 0.398999989
-0.001000000047 -0.3370000124 0.4070000052
-0.001000000047 -0.3370000124 0.4110000134
-0.001000000047 -0.3370000124 0.4129999876
-0.001000000047 -0.3330000043 0.4009999931
-0.001000000047 -0.3330000043 0.4029999971
-0.001000000047 -0.3289999962 0.4009999931
-0.001000000047 -0.3310000002 0.4029999971
-0.001000000047 -0.3289999962 0.4029999971
-0.001000000047 -0.3350000083 0.4050000012
-0.001000000047 -0.3330000043 0.4050000012
-0.001000000047 -0.3350000083 0.4070000052
-0.001000000047 -0.3330000043 0.4070000052
-0.001000000047 -0.3310000002 0.4050000012
-0.001000000047 -0.3289999962 0.4050000012
-0.001000000047 -0.3310000002 0.4070000052
-0.001000000047 -0.3269999921 0.4009999931
-0.001000000047 -0.3249999881 0.4009999931
-0.001000000047 -0.3269999921 0.4029999971
-0.001000000047 -0.3249999881 0.4029999971
-0.003000000026 -0.3230000138 0.4009999931
-0.003000000026 -0.3210000098 0.4009999931
-0.001000000047 -0.3210000098 0.4009999931
-0.003000000026 -0.3230000138 0.4029999971
-0.003000000026 -0.3210000098 0.4029999971
-0.003000000026 -0.3269999921 0.4050000012
-0.003000000026 -0.3249999881 0.4050000012
-0.003000000026 -0.3269999921 0.4070000052
-0.003000000026 -0.3249999881 0.4070000052
-0.003000000026 -0.3230000138 0.4050000012
-0.003000000026 -0.3210000098 0.4050000012
-0.003000000026 -0.3230000138 0.4070000052
-0.001000000047 -0.3350000083 0.4090000093
-0.001000000047 -0.3330000043 0.4090000093
-0.001000000047 -0.3350000083 0.4110000134
-0.001000000047 -0.3330000043 0.4110000134
-0.001000000047 -0.3310000002 0.4090000093
-0.003000000026 -0.3289999962 0.4090000093
-0.001000000047 -0.3310000002 0.4110000134
-0.003000000026 -0.3289999962 0.4110000134
-0.001000000047 -0.3350000083 0.4129999876
-0.001000000047 -0.3330000043 0.4129999876
-0.004999999888 -0.3289999962 0.4149999917
-0.001000000047 -0.3310000002 0.4129999876
-0.003000000026 -0.3289999962 0.4129999876
-0.004999999888 -0.3249999881 0.4090000093
-0.003000000026 -0.3269999921 0.4090000093
-0.003000000026 -0.3249999881 0.4090000093
-0.004999999888 -0.3210000098 0.4090000093
-0.004999999888 -0.3230000138 0.4110000134
-0.004999999888 -0.3210000098 0.4110000134
-0.004999999888 -0.3269999921 0.4129999876
-0.004999999888 -0.3249999881 0.4129999876
-0.004999999888 -0.3269999921 0.4149999917
-0.004999999888 -0.3249999881 0.4149999917
-0.004999999888 -0.3230000138 0.4129999876
-0.004999999888 -0.3210000098 0.4129999876
-0.004999999888 -0.3230000138 0.4149999917
-0.004999999888 -0.3210000098 0.4149999917
-0.001000000047 -0.3409999907 0.4189999998
-0.001000000047 -0.3370000124 0.4169999957
-0.001000000047 -0.3389999866 0.4189999998
-0.003000000026 -0.3370000124 0.4189999998
-0.001000000047 -0.3429999948 0.4210000038
-0.001000000047 -0.3409999907 0.4210000038
-0.001000000047 -0.3409999907 0.4230000079
-0.001000000047 -0.3389999866 0.4210000038
-0.003000000026 -0.3370000124 0.4210000038
-0.001000000047 -0.3389999866 0.4230000079
-0.001000000047 -0.3370000124 0.4230000079
-0.001000000047 -0.3389999866 0.4250000119
-0.001000000047 -0.3370000124 0.4250000119
-0.001000000047 -0.3389999866 0.4269999862
-0.001000000047 -0.3370000124 0.4269999862
-0.001000000047 -0.3389999866 0.4289999902
-0.001000000047 -0.3370000124 0.4289999902
-0.001000000047 -0.3389999866 0.4309999943
-0.001000000047 -0.3370000124 0.4309999943
-0.003000000026 -0.3350000083 0.4169999957
-0.003000000026 -0.3330000043 0.4169999957
-0.003000000026 -0.3350000083 0.4189999998
-0.003000000026 -0.3330000043 0.4189999998
-0.004999999888 -0.3310000002 0.4169999957
-0.004999999888 -0.3289999962 0.4169999957
-0.004999999888 -0.3310000002 0.4189999998
-0.004999999888 -0.3289999962 0.4189999998
-0.003000000026 -0.3310000002 0.4189999998
-0.003000000026 -0.3350000083 0.4210000038
-0.003000000026 -0.3330000043 0.4210000038
-0.003000000026 -0.3350000083 0.4230000079
-0.003000000026 -0.3330000043 0.4230000079
-0.004999999888 -0.3289999962 0.4210000038
-0.003000000026 -0.3310000002 0.4210000038
-0.003000000026 -0.3310000002 0.4230000079
-0.003000000026 -0.3289999962 0.4230000079
-0.004999999888 -0.3269999921 0.4169999957
-0.004999999888 -0.3249999881 0.4169999957
-0.004999999888 -0.3269999921 0.4189999998
-0.004999999888 -0.3249999881 0.4189999998
-0.004999999888 -0.3230000138 0.4169999957
-0.004999999888 -0.3210000098 0.4169999957
-0.004999999888 -0.3230000138 0.4189999998
-0.004999999888 -0.3210000098 0.4189999998
-0.004999999888 -0.3269999921 0.4210000038
-0.004999999888 -0.3249999881 0.4210000038
-0.004999999888 -0.3269999921 0.4230000079
-0.004999999888 -0.3249999881 0.4230000079
-0.004999999888 -0.3230000138 0.4210000038
-0.004999999888 -0.3210000098 0.4210000038
-0.004999999888 -0.3230000138 0.4230000079
-0.004999999888 -0.3210000098 0.4230000079
-0.003000000026 -0.3350000083 0.4250000119
-0.001000000047 -0.3350000083 0.4250000119
-0.003000000026 -0.3330000043 0.4250000119
-0.003000000026 -0.3350000083 0.4269999862
-0.001000000047 -0.3350000083 0.4269999862
-0.003000000026 -0.3330000043 0.4269999862
-0.003000000026 -0.3310000002 0.4250000119
-0.003000000026 -0.3289999962 0.4250000119
-0.003000000026 -0.3310000002 0.4269999862
-0.003000000026 -0.3289999962 0.4269999862
-0.001000000047 -0.3350000083 0.4289999902
-0.003000000026 -0.3330000043 0.4289999902
-0.001000000047 -0.3330000043 0.4289999902
-0.001000000047 -0.3350000083 0.4309999943
-0.001000000047 -0.3330000043 0.4309999943
-0.003000000026 -0.3310000002 0.4289999902
-0.003000000026 -0.3289999962 0.4289999902
-0.001000000047 -0.3310000002 0.4309999943
-0.001000000047 -0.3289999962 0.4309999943
-0.004999999888 -0.3269999921 0.4250000119
-0.004999999888 -0.3249999881 0.4250000119
-0.004999999888 -0.3249999881 0.4269999862
-0.003000000026 -0.3269999921 0.4250000119
-0.003000000026 -0.3269999921 0.4269999862
-0.003000000026 -0.3249999881 0.4269999862
-0.004999999888 -0.3230000138 0.4250000119
-0.004999999888 -0.3210000098 0.4250000119
-0.004999999888 -0.3230000138 0.4269999862
-0.004999999888 -0.3210000098 0.4269999862
-0.003000000026 -0.3230000138 0.4269999862
-0.003000000026 -0.3210000098 0.4269999862
-0.003000000026 -0.3269999921 0.4289999902
-0.003000000026 -0.3249999881 0.4289999902
-0.001000000047 -0.3269999921 0.4309999943
-0.003000000026 -0.3249999881 0.4309999943
-0.001000000047 -0.3249999881 0.4309999943
-0.003000000026 -0.3230000138 0.4289999902
-0.003000000026 -0.3210000098 0.4289999902
-0.001000000047 -0.3230000138 0.4309999943
-0.001000000047 -0.3210000098 0.4309999943
-0.001000000047 -0.3310000002 0.4329999983
-0.001000000047 -0.3289999962 0.4329999983
-0.001000000047 -0.3269999921 0.4329999983
-0.001000000047 -0.3249999881 0.4329999983
-0.001000000047 -0.3230000138 0.4329999983
-0.001000000047 -0.3210000098 0.4329999983
-0.001000000047 -0.3070000112 0.3910000026
-0.001000000047 -0.3170000017 0.3930000067
-0.001000000047 -0.3190000057 0.3950000107
-0.001000000047 -0.3170000017 0.3950000107
-0.001000000047 -0.3149999976 0.3950000107
-0.001000000047 -0.3190000057 0.3970000148
-0.001000000047 -0.3170000017 0.3970000148
-0.001000000047 -0.3190000057 0.398999989
-0.001000000047 -0.3170000017 0.398999989
-0.001000000047 -0.3149999976 0.3970000148
-0.003000000026 -0.3129999936 0.3970000148
-0.001000000047 -0.3089999855 0.3930000067
-0.003000000026 -0.3089999855 0.3950000107
-0.001000000047 -0.3070000112 0.3930000067
-0.001000000047 -0.3050000072 0.3930000067
-0.001000000047 -0.3070000112 0.3950000107
-0.001000000047 -0.3050000072 0.3950000107
-0.003000000026 -0.3109999895 0.3970000148
-0.003000000026 -0.3089999855 0.3970000148
-0.003000000026 -0.3109999895 0.398999989
-0.003000000026 -0.3089999855 0.398999989
-0.003000000026 -0.3070000112 0.3970000148
-0.003000000026 -0.3050000072 0.3970000148
-0.001000000047 -0.3050000072 0.3970000148
-0.003000000026 -0.3070000112 0.398999989
-0.003000000026 -0.3050000072 0.398999989
-0.001000000047 -0.3050000072 0.398999989
-0.001000000047 -0.3030000031 0.3930000067
-0.001000000047 -0.3030000031 0.3950000107
-0.001000000047 -0.300999999 0.3950000107
-0.001000000047 -0.3030000031 0.3970000148
-0.001000000047 -0.300999999 0.3970000148
-0.001000000047 -0.3030000031 0.398999989
-0.001000000047 -0.300999999 0.398999989
-0.001000000047 -0.298999995 0.398999989
-0.003000000026 -0.3190000057 0.4009999931
-0.003000000026 -0.3170000017 0.4009999931
-0.003000000026 -0.3190000057 0.4029999971
-0.004999999888 -0.3129999936 0.4009999931
-0.004999999888 -0.3149999976 0.4029999971
-0.004999999888 -0.3129999936 0.4029999971
-0.003000000026 -0.3149999976 0.4009999931
-0.004999999888 -0.3170000017 0.4050000012
-0.004999999888 -0.3190000057 0.4070000052
-0.004999999888 -0.3170000017 0.4070000052
-0.004999999888 -0.3149999976 0.4050000012
-0.004999999888 -0.3129999936 0.4050000012
-0.004999999888 -0.3149999976 0.4070000052
-0.004999999888 -0.3129999936 0.4070000052
-0.004999999888 -0.3109999895 0.4009999931
-0.004999999888 -0.3109999895 0.4029999971
-0.003000000026 -0.3109999895 0.4009999931
-0.003000000026 -0.3089999855 0.4009999931
-0.003000000026 -0.3089999855 0.4029999971
-0.003000000026 -0.3070000112 0.4009999931
-0.003000000026 -0.3050000072 0.4009999931
-0.003000000026 -0.3070000112 0.4029999971
-0.003000000026 -0.3050000072 0.4029999971
-0.004999999888 -0.3109999895 0.4050000012
-0.004999999888 -0.3089999855 0.4050000012
-0.004999999888 -0.3109999895 0.4070000052
-0.004999999888 -0.3089999855 0.4070000052
-0.004999999888 -0.3070000112 0.4070000052
-0.003000000026 -0.3070000112 0.4050000012
-0.003000000026 -0.3050000072 0.4050000012
-0.003000000026 -0.3070000112 0.4070000052
-0.003000000026 -0.3050000072 0.4070000052
-0.004999999888 -0.3190000057 0.4090000093
-0.004999999888 -0.3170000017 0.4090000093
-0.004999999888 -0.3190000057 0.4110000134
-0.004999999888 -0.3170000017 0.4110000134
-0.004999999888 -0.3149999976 0.4090000093
-0.004999999888 -0.3129999936 0.4090000093
-0.004999999888 -0.3149999976 0.4110000134
-0.004999999888 -0.3129999936 0.4110000134
-0.004999999888 -0.3190000057 0.4129999876
-0.004999999888 -0.3170000017 0.4129999876
-0.004999999888 -0.3190000057 0.4149999917
-0.004999999888 -0.3170000017 0.4149999917
-0.004999999888 -0.3149999976 0.4129999876
-0.004999999888 -0.3129999936 0.4129999876
-0.004999999888 -0.3149999976 0.4149999917
-0.004999999888 -0.3129999936 0.4149999917
-0.004999999888 -0.3109999895 0.4090000093
-0.004999999888 -0.3089999855 0.4090000093
-0.004999999888 -0.3109999895 0.4110000134
-0.004999999888 -0.3089999855 0.4110000134
-0.004999999888 -0.3070000112 0.4110000134
-0.003000000026 -0.3070000112 0.4090000093
-0.003000000026 -0.3050000072 0.4090000093
-0.003000000026 -0.3070000112 0.4110000134
-0.003000000026 -0.3050000072 0.4110000134
-0.004999999888 -0.3109999895 0.4129999876
-0.004999999888 -0.3089999855 0.4129999876
-0.004999999888 -0.3109999895 0.4149999917
-0.004999999888 -0.3089999855 0.4149999917
-0.004999999888 -0.3070000112 0.4129999876
-0.004999999888 -0.3070000112 0.4149999917
-0.004999999888 -0.3050000072 0.4149999917
-0.003000000026 -0.3050000072 0.4129999876
-0.003000000026 -0.3050000072 0.4149999917
-0.001000000047 -0.3030000031 0.4009999931
-0.001000000047 -0.300999999 0.4009999931
-0.003000000026 -0.3030000031 0.4029999971
-0.001000000047 -0.3030000031 0.4029999971
-0.001000000047 -0.300999999 0.4029999971
-0.001000000047 -0.298999995 0.4009999931
-0.001000000047 -0.298999995 0.4029999971
-0.001000000047 -0.2969999909 0.4029999971
-0.003000000026 -0.3030000031 0.4050000012
-0.003000000026 -0.300999999 0.4050000012
-0.001000000047 -0.300999999 0.4050000012
-0.003000000026 -0.3030000031 0.4070000052
-0.003000000026 -0.300999999 0.4070000052
-0.001000000047 -0.298999995 0.4050000012
-0.001000000047 -0.2969999909 0.4050000012
-0.001000000047 -0.298999995 0.4070000052
-0.001000000047 -0.2969999909 0.4070000052
-0.003000000026 -0.3030000031 0.4090000093
-0.003000000026 -0.300999999 0.4090000093
-0.003000000026 -0.3030000031 0.4110000134
-0.003000000026 -0.300999999 0.4110000134
-0.001000000047 -0.300999999 0.4110000134
-0.001000000047 -0.298999995 0.4090000093
-0.001000000047 -0.2969999909 0.4090000093
-0.001000000047 -0.298999995 0.4110000134
-0.001000000047 -0.2969999909 0.4110000134
-0.003000000026 -0.3030000031 0.4129999876
-0.003000000026 -0.300999999 0.4129999876
-0.001000000047 -0.300999999 0.4129999876
-0.003000000026 -0.3030000031 0.4149999917
-0.001000000047 -0.300999999 0.4149999917
-0.001000000047 -0.298999995 0.4129999876
-0.001000000047 -0.298999995 0.4149999917
-0.004999999888 -0.3190000057 0.4169999957
-0.004999999888 -0.3170000017 0.4169999957
-0.004999999888 -0.3190000057 0.4189999998
-0.004999999888 -0.3170000017 0.4189999998
-0.004999999888 -0.3149999976 0.4169999957
-0.004999999888 -0.3129999936 0.4169999957
-0.004999999888 -0.3149999976 0.4189999998
-0.004999999888 -0.3129999936 0.4189999998
-0.004999999888 -0.3190000057 0.4210000038
-0.004999999888 -0.3170000017 0.4210000038
-0.004999999888 -0.3190000057 0.4230000079
-0.004999999888 -0.3170000017 0.4230000079
-0.004999999888 -0.3149999976 0.4210000038
-0.004999999888 -0.3129999936 0.4210000038
-0.004999999888 -0.3149999976 0.4230000079
-0.004999999888 -0.3129999936 0.4230000079
-0.003000000026 -0.3129999936 0.4230000079
-0.004999999888 -0.3109999895 0.4169999957
-0.004999999888 -0.3089999855 0.4169999957
-0.004999999888 -0.3109999895 0.4189999998
-0.004999999888 -0.3089999855 0.4189999998
-0.003000000026 -0.3089999855 0.4189999998
-0.004999999888 -0.3070000112 0.4169999957
-0.003000000026 -0.3070000112 0.4169999957
-0.003000000026 -0.3050000072 0.4169999957
-0.003000000026 -0.3070000112 0.4189999998
-0.003000000026 -0.3050000072 0.4189999998
-0.004999999888 -0.3109999895 0.4210000038
-0.003000000026 -0.3109999895 0.4210000038
-0.003000000026 -0.3089999855 0.4210000038
-0.003000000026 -0.3109999895 0.4230000079
-0.003000000026 -0.3089999855 0.4230000079
-0.003000000026 -0.3070000112 0.4210000038
-0.003000000026 -0.3050000072 0.4210000038
-0.001000000047 -0.3050000072 0.4210000038
-0.001000000047 -0.3070000112 0.4230000079
-0.001000000047 -0.3050000072 0.4230000079
-0.004999999888 -0.3190000057 0.4250000119
-0.004999999888 -0.3170000017 0.4250000119
-0.003000000026 -0.3170000017 0.4250000119
-0.003000000026 -0.3190000057 0.4269999862
-0.003000000026 -0.3170000017 0.4269999862
-0.003000000026 -0.3149999976 0.4250000119
-0.003000000026 -0.3129999936 0.4250000119
-0.003000000026 -0.3149999976 0.4269999862
-0.001000000047 -0.3149999976 0.4269999862
-0.003000000026 -0.3129999936 0.4269999862
-0.001000000047 -0.3129999936 0.4269999862
-0.003000000026 -0.3190000057 0.4289999902
-0.001000000047 -0.3190000057 0.4289999902
-0.003000000026 -0.3170000017 0.4289999902
-0.001000000047 -0.3170000017 0.4289999902
-0.001000000047 -0.3190000057 0.4309999943
-0.001000000047 -0.3170000017 0.4309999943
-0.001000000047 -0.3149999976 0.4289999902
-0.001000000047 -0.3129999936 0.4289999902
-0.001000000047 -0.3149999976 0.4309999943
-0.003000000026 -0.3109999895 0.4250000119
-0.001000000047 -0.3109999895 0.4250000119
-0.001000000047 -0.3089999855 0.4250000119
-0.001000000047 -0.3109999895 0.4269999862
-0.001000000047 -0.3089999855 0.4269999862
-0.001000000047 -0.3070000112 0.4250000119
-0.001000000047 -0.3109999895 0.4289999902
-0.003000000026 -0.3030000031 0.4169999957
-0.001000000047 -0.3030000031 0.4169999957
-0.001000000047 -0.300999999 0.4169999957
-0.001000000047 -0.3030000031 0.4189999998
-0.001000000047 -0.300999999 0.4189999998
-0.001000000047 -0.3030000031 0.4210000038
-0.001000000047 -0.3030000031 0.4230000079
0.004999999888 -0.3050000072 0.01099999994
0.001000000047 -0.3070000112 0.01300000027
0.001000000047 -0.3070000112 0.01499999966
0.003000000026 -0.3070000112 0.01499999966
0.004999999888 -0.3050000072 0.01300000027
0.004999999888 -0.3050000072 0.01499999966
0.007000000216 -0.300999999 0.01099999994
0.007000000216 -0.298999995 0.01099999994
0.007000000216 -0.300999999 0.01300000027
0.007000000216 -0.300999999 0.01499999966
0.007000000216 -0.298999995 0.01300000027
0.007000000216 -0.298999995 0.01499999966
0.007000000216 -0.2969999909 0.01499999966
0.001000000047 -0.2930000126 0.01099999994
0.001000000047 -0.2930000126 0.01300000027
0.001000000047 -0.3070000112 0.02099999972
0.001000000047 -0.3070000112 0.02300000004
0.003000000026 -0.3070000112 0.02300000004
0.001000000047 -0.3070000112 0.0270000007
0.004999999888 -0.3050000072 0.02500000037
0.004999999888 -0.3050000072 0.0270000007
0.001000000047 -0.3070000112 0.02899999917
0.003000000026 -0.3070000112 0.03099999949
0.004999999888 -0.3050000072 0.03099999949
0.007000000216 -0.300999999 0.01700000092
0.007000000216 -0.300999999 0.01899999939
0.007000000216 -0.298999995 0.01700000092
0.007000000216 -0.298999995 0.01899999939
0.007000000216 -0.2969999909 0.01899999939
0.007000000216 -0.300999999 0.02099999972
0.007000000216 -0.300999999 0.02300000004
0.007000000216 -0.298999995 0.02099999972
0.007000000216 -0.2969999909 0.02099999972
0.007000000216 -0.298999995 0.02300000004
0.007000000216 -0.2969999909 0.02300000004
0.001000000047 -0.2930000126 0.01899999939
0.004999999888 -0.2949999869 0.01700000092
0.004999999888 -0.2949999869 0.01899999939
0.001000000047 -0.2930000126 0.02099999972
0.004999999888 -0.2949999869 0.02300000004
0.007000000216 -0.300999999 0.02500000037
0.007000000216 -0.300999999 0.0270000007
0.007000000216 -0.298999995 0.02500000037
0.007000000216 -0.2969999909 0.02500000037
0.007000000216 -0.298999995 0.0270000007
0.007000000216 -0.3030000031 0.02899999917
0.007000000216 -0.300999999 0.02899999917
0.007000000216 -0.300999999 0.03099999949
0.007000000216 -0.298999995 0.02899999917
0.007000000216 -0.298999995 0.03099999949
0.001000000047 -0.2930000126 0.03099999949
0.001000000047 -0.3070000112 0.03500000015
0.004999999888 -0.3050000072 0.03299999982
0.004999999888 -0.3050000072 0.03500000015
0.001000000047 -0.3070000112 0.03700000048
0.003000000026 -0.3070000112 0.03700000048
0.004999999888 -0.3050000072 0.03700000048
0.004999999888 -0.3050000072 0.0390000008
0.001000000047 -0.3070000112 0.04100000113
0.001000000047 -0.3070000112 0.04300000146
0.004999999888 -0.3050000072 0.04300000146
0.003000000026 -0.3070000112 0.04500000179
0.007000000216 -0.300999999 0.03299999982
0.007000000216 -0.300999999 0.03500000015
0.007000000216 -0.298999995 0.03299999982
0.007000000216 -0.298999995 0.03500000015
0.007000000216 -0.300999999 0.03700000048
0.007000000216 -0.300999999 0.0390000008
0.007000000216 -0.298999995 0.03700000048
0.007000000216 -0.2969999909 0.03700000048
0.007000000216 -0.298999995 0.0390000008
0.007000000216 -0.300999999 0.04100000113
0.007000000216 -0.300999999 0.04300000146
0.007000000216 -0.298999995 0.04300000146
0.007000000216 -0.2969999909 0.04300000146
0.007000000216 -0.300999999 0.04500000179
0.007000000216 -0.300999999 0.04699999839
0.007000000216 -0.298999995 0.04500000179
0.007000000216 -0.298999995 0.04699999839
0.007000000216 -0.2969999909 0.04699999839
0.001000000047 -0.2930000126 0.04300000146
0.004999999888 -0.2949999869 0.04300000146
0.001000000047 -0.2930000126 0.04500000179
0.001000000047 -0.3070000112 0.04899999872
0.001000000047 -0.3070000112 0.05099999905
0.003000000026 -0.3070000112 0.05099999905
0.004999999888 -0.3050000072 0.04899999872
0.004999999888 -0.3070000112 0.05099999905
0.001000000047 -0.3070000112 0.05299999937
0.001000000047 -0.3070000112 0.0549999997
0.004999999888 -0.3050000072 0.05299999937
0.004999999888 -0.3050000072 0.0549999997
0.001000000047 -0.3070000112 0.05700000003
0.003000000026 -0.3070000112 0.05700000003
0.004999999888 -0.3050000072 0.05700000003
0.001000000047 -0.3070000112 0.06100000069
0.001000000047 -0.3070000112 0.06300000101
0.003000000026 -0.3070000112 0.06300000101
0.004999999888 -0.3050000072 0.06300000101
0.007000000216 -0.300999999 0.04899999872
0.007000000216 -0.298999995 0.04899999872
0.007000000216 -0.298999995 0.05099999905
0.007000000216 -0.2969999909 0.05099999905
0.007000000216 -0.300999999 0.05299999937
0.007000000216 -0.300999999 0.0549999997
0.007000000216 -0.298999995 0.05299999937
0.007000000216 -0.298999995 0.0549999997
0.001000000047 -0.2930000126 0.05299999937
0.001000000047 -0.2930000126 0.0549999997
0.004999999888 -0.2949999869 0.05299999937
0.007000000216 -0.300999999 0.05700000003
0.007000000216 -0.300999999 0.05900000036
0.007000000216 -0.298999995 0.05700000003
0.007000000216 -0.300999999 0.06100000069
0.007000000216 -0.300999999 0.06300000101
0.007000000216 -0.298999995 0.06100000069
0.007000000216 -0.2969999909 0.06100000069
0.007000000216 -0.298999995 0.06300000101
0.001000000047 -0.2930000126 0.05700000003
0.004999999888 -0.2949999869 0.05700000003
0.004999999888 -0.2949999869 0.06300000101
0.001000000047 -0.3070000112 0.06700000167
0.004999999888 -0.3050000072 0.06700000167
0.001000000047 -0.3070000112 0.06899999827
0.003000000026 -0.3070000112 0.07100000232
0.004999999888 -0.3070000112 0.06899999827
0.004999999888 -0.3050000072 0.06899999827
0.001000000047 -0.3070000112 0.07299999893
0.003000000026 -0.3050000072 0.07299999893
0.001000000047 -0.3070000112 0.07500000298
0.004999999888 -0.3050000072 0.07299999893
0.004999999888 -0.3050000072 0.07500000298
0.001000000047 -0.3070000112 0.07699999958
0.003000000026 -0.3070000112 0.07699999958
0.001000000047 -0.3070000112 0.07900000364
0.004999999888 -0.3050000072 0.07699999958
0.004999999888 -0.3050000072 0.07900000364
0.007000000216 -0.300999999 0.06499999762
0.004999999888 -0.3030000031 0.06700000167
0.007000000216 -0.298999995 0.06499999762
0.007000000216 -0.2969999909 0.06499999762
0.007000000216 -0.298999995 0.06700000167
0.007000000216 -0.2969999909 0.06700000167
0.007000000216 -0.300999999 0.06899999827
0.007000000216 -0.300999999 0.07100000232
0.007000000216 -0.298999995 0.06899999827
0.007000000216 -0.298999995 0.07100000232
0.007000000216 -0.2969999909 0.07100000232
0.001000000047 -0.2930000126 0.06499999762
0.004999999888 -0.2949999869 0.06499999762
0.003000000026 -0.2949999869 0.06899999827
0.003000000026 -0.2949999869 0.07100000232
0.004999999888 -0.2949999869 0.06899999827
0.004999999888 -0.2949999869 0.07100000232
0.004999999888 -0.3030000031 0.07299999893
0.007000000216 -0.300999999 0.07500000298
0.007000000216 -0.298999995 0.07500000298
0.007000000216 -0.2969999909 0.07500000298
0.007000000216 -0.3030000031 0.07699999958
0.007000000216 -0.300999999 0.07699999958
0.007000000216 -0.300999999 0.07900000364
0.007000000216 -0.298999995 0.07699999958
0.004999999888 -0.2969999909 0.07699999958
0.007000000216 -0.298999995 0.07900000364
0.007000000216 -0.2969999909 0.07900000364
0.003000000026 -0.2949999869 0.07299999893
0.003000000026 -0.2949999869 0.07500000298
0.001000000047 -0.2930000126 0.07500000298
0.004999999888 -0.2949999869 0.07299999893
0.003000000026 -0.2949999869 0.07699999958
0.001000000047 -0.2930000126 0.07699999958
0.003000000026 -0.2949999869 0.07900000364
0.004999999888 -0.2949999869 0.07699999958
0.004999999888 -0.2949999869 0.07900000364
0.003000000026 -0.3070000112 0.08100000024
0.003000000026 -0.3050000072 0.08100000024
0.003000000026 -0.3050000072 0.08299999684
0.007000000216 -0.3050000072 0.08100000024
0.001000000047 -0.3070000112 0.08500000089
0.001000000047 -0.3070000112 0.0869999975
0.003000000026 -0.3070000112 0.0869999975
0.004999999888 -0.3050000072 0.08500000089
0.004999999888 -0.3050000072 0.0869999975
0.001000000047 -0.3070000112 0.08900000155
0.003000000026 -0.3050000072 0.08900000155
0.004999999888 -0.3030000031 0.08100000024
0.007000000216 -0.300999999 0.08100000024
0.004999999888 -0.3030000031 0.08299999684
0.007000000216 -0.300999999 0.08299999684
0.007000000216 -0.298999995 0.08100000024
0.007000000216 -0.2969999909 0.08299999684
0.007000000216 -0.300999999 0.08500000089
0.007000000216 -0.300999999 0.0869999975
0.007000000216 -0.298999995 0.08500000089
0.007000000216 -0.2969999909 0.08500000089
0.007000000216 -0.298999995 0.0869999975
0.004999999888 -0.2949999869 0.08299999684
0.001000000047 -0.2930000126 0.0869999975
0.004999999888 -0.2949999869 0.08500000089
0.004999999888 -0.3030000031 0.08900000155
0.007000000216 -0.3030000031 0.08900000155
0.007000000216 -0.300999999 0.08900000155
0.004999999888 -0.2969999909 0.08900000155
0.007000000216 -0.2969999909 0.08900000155
0.008999999613 -0.300999999 0.08900000155
0.008999999613 -0.298999995 0.08900000155
0.001000000047 -0.2930000126 0.08900000155
0.004999999888 -0.2949999869 0.08900000155
0.01300000027 -0.3370000124 0.3770000041
0.01099999994 -0.3429999948 0.3829999864
0.01099999994 -0.3330000043 0.375
0.01300000027 -0.3310000002 0.375
0.01099999994 -0.3230000138 0.375
0.01300000027 -0.3210000098 0.3729999959
0.007000000216 -0.3330000043 0.3829999864
0.007000000216 -0.3310000002 0.3829999864
0.007000000216 -0.3289999962 0.3829999864
0.01300000027 -0.3350000083 0.3770000041
0.01300000027 -0.3330000043 0.3770000041
0.007000000216 -0.3249999881 0.3790000081
0.007000000216 -0.3269999921 0.3810000122
0.004999999888 -0.3210000098 0.3810000122
0.007000000216 -0.3210000098 0.3810000122
0.004999999888 -0.3230000138 0.3829999864
0.008999999613 -0.3230000138 0.3770000041
0.02099999972 -0.3129999936 0.3650000095
0.01700000092 -0.3109999895 0.3670000136
0.01899999939 -0.3050000072 0.3650000095
0.02099999972 -0.3030000031 0.3630000055
0.01899999939 -0.2969999909 0.3670000136
0.02099999972 -0.2949999869 0.3670000136
0.02099999972 -0.2910000086 0.3670000136
0.02500000037 -0.2930000126 0.3630000055
0.01300000027 -0.3170000017 0.3709999919
0.01499999966 -0.3129999936 0.3709999919
0.008999999613 -0.3170000017 0.375
0.01099999994 -0.3170000017 0.375
0.01099999994 -0.3129999936 0.375
0.01300000027 -0.3129999936 0.3729999959
0.01499999966 -0.3089999855 0.3689999878
0.01300000027 -0.3070000112 0.3689999878
0.01300000027 -0.3050000072 0.3709999919
0.01099999994 -0.3089999855 0.375
0.01099999994 -0.3050000072 0.3729999959
0.008999999613 -0.3050000072 0.375
0.007000000216 -0.3190000057 0.3790000081
0.007000000216 -0.3149999976 0.3790000081
0.004999999888 -0.3170000017 0.3829999864
0.004999999888 -0.3149999976 0.3810000122
0.007000000216 -0.3149999976 0.3810000122
0.007000000216 -0.3129999936 0.3810000122
0.004999999888 -0.3129999936 0.3829999864
0.008999999613 -0.3170000017 0.3770000041
0.008999999613 -0.3129999936 0.3770000041
0.007000000216 -0.3109999895 0.3790000081
0.007000000216 -0.3050000072 0.3770000041
0.007000000216 -0.3089999855 0.3810000122
0.004999999888 -0.3109999895 0.3829999864
0.004999999888 -0.3089999855 0.3829999864
0.003000000026 -0.3050000072 0.3829999864
0.004999999888 -0.3050000072 0.3810000122
0.004999999888 -0.3070000112 0.3829999864
0.008999999613 -0.3109999895 0.3770000041
0.008999999613 -0.3089999855 0.3770000041
0.008999999613 -0.3070000112 0.3770000041
0.01499999966 -0.300999999 0.3689999878
0.01300000027 -0.298999995 0.3709999919
0.01499999966 -0.2969999909 0.3709999919
0.01099999994 -0.300999999 0.3729999959
0.01099999994 -0.3030000031 0.375
0.01099999994 -0.298999995 0.3729999959
0.01099999994 -0.298999995 0.375
0.01300000027 -0.2969999909 0.3729999959
0.01499999966 -0.2949999869 0.3729999959
0.01499999966 -0.2930000126 0.3729999959
0.01300000027 -0.2949999869 0.375
0.01300000027 -0.2930000126 0.375
0.01499999966 -0.2910000086 0.375
0.01499999966 -0.2890000045 0.375
0.007000000216 -0.3030000031 0.3790000081
0.007000000216 -0.300999999 0.3790000081
0.003000000026 -0.3030000031 0.3829999864
0.004999999888 -0.3030000031 0.3810000122
0.004999999888 -0.3030000031 0.3829999864
0.004999999888 -0.300999999 0.3829999864
0.007000000216 -0.298999995 0.3810000122
0.004999999888 -0.298999995 0.3829999864
0.007000000216 -0.2969999909 0.3829999864
0.008999999613 -0.3030000031 0.3770000041
0.008999999613 -0.300999999 0.3770000041
0.008999999613 -0.298999995 0.3770000041
0.01099999994 -0.2969999909 0.3770000041
0.008999999613 -0.298999995 0.3790000081
0.008999999613 -0.2969999909 0.3790000081
0.007000000216 -0.2949999869 0.3829999864
0.007000000216 -0.2930000126 0.3829999864
0.01099999994 -0.2949999869 0.3770000041
0.008999999613 -0.2949999869 0.3790000081
0.01099999994 -0.2930000126 0.3790000081
0.01300000027 -0.2930000126 0.3770000041
0.01099999994 -0.2910000086 0.3790000081
0.01300000027 -0.2910000086 0.3770000041
0.01499999966 -0.2890000045 0.3770000041
0.01300000027 -0.2890000045 0.3790000081
0.008999999613 -0.2949999869 0.3810000122
0.01099999994 -0.2930000126 0.3810000122
0.008999999613 -0.2930000126 0.3829999864
0.01099999994 -0.2910000086 0.3810000122
0.01099999994 -0.2890000045 0.3810000122
0.008999999613 -0.2910000086 0.3829999864
0.01099999994 -0.2890000045 0.3829999864
0.01700000092 -0.298999995 0.3689999878
0.01899999939 -0.2930000126 0.3689999878
0.01700000092 -0.2949999869 0.3709999919
0.01700000092 -0.2930000126 0.3709999919
0.01899999939 -0.2910000086 0.3709999919
0.02099999972 -0.2890000045 0.3689999878
0.01700000092 -0.2910000086 0.3729999959
0.01700000092 -0.2890000045 0.3729999959
0.03099999949 -0.2790000141 0.3670000136
0.01499999966 -0.2870000005 0.375
0.01499999966 -0.2870000005 0.3770000041
0.01300000027 -0.2870000005 0.3790000081
0.01499999966 -0.2870000005 0.3790000081
0.01499999966 -0.2849999964 0.3790000081
0.01099999994 -0.2870000005 0.3829999864
0.01300000027 -0.2870000005 0.3810000122
0.01499999966 -0.2849999964 0.3810000122
0.01300000027 -0.2870000005 0.3829999864
0.01499999966 -0.2849999964 0.3829999864
0.01499999966 -0.2829999924 0.3829999864
0.02099999972 -0.2870000005 0.3689999878
0.02300000004 -0.2849999964 0.3689999878
0.01899999939 -0.2870000005 0.3729999959
0.01899999939 -0.2849999964 0.3729999959
0.01700000092 -0.2870000005 0.375
0.01899999939 -0.2849999964 0.375
0.02099999972 -0.2849999964 0.3729999959
0.01899999939 -0.2829999924 0.375
0.02300000004 -0.2829999924 0.3729999959
0.02099999972 -0.2829999924 0.375
0.02300000004 -0.2809999883 0.375
0.02500000037 -0.2849999964 0.3689999878
0.02500000037 -0.2829999924 0.3689999878
0.0270000007 -0.2809999883 0.3689999878
0.02899999917 -0.2809999883 0.3689999878
0.02500000037 -0.2809999883 0.3729999959
0.02300000004 -0.2790000141 0.375
0.02899999917 -0.27700001 0.3709999919
0.03099999949 -0.275000006 0.3709999919
0.0270000007 -0.2790000141 0.3729999959
0.02500000037 -0.2790000141 0.375
0.0270000007 -0.27700001 0.375
0.02899999917 -0.2790000141 0.3729999959
0.02899999917 -0.27700001 0.375
0.03099999949 -0.275000006 0.3729999959
0.02899999917 -0.275000006 0.375
0.02899999917 -0.2730000019 0.375
0.03099999949 -0.2730000019 0.375
0.01700000092 -0.2849999964 0.3770000041
0.01899999939 -0.2829999924 0.3770000041
0.01700000092 -0.2829999924 0.3790000081
0.01899999939 -0.2829999924 0.3790000081
0.01899999939 -0.2809999883 0.3790000081
0.02099999972 -0.2809999883 0.3770000041
0.01700000092 -0.2829999924 0.3810000122
0.01899999939 -0.2809999883 0.3810000122
0.01700000092 -0.2829999924 0.3829999864
0.01700000092 -0.2809999883 0.3829999864
0.02300000004 -0.2790000141 0.3770000041
0.02099999972 -0.2790000141 0.3790000081
0.02300000004 -0.2790000141 0.3790000081
0.02300000004 -0.27700001 0.3790000081
0.01899999939 -0.2790000141 0.3829999864
0.02099999972 -0.2790000141 0.3810000122
0.02300000004 -0.2790000141 0.3810000122
0.02300000004 -0.27700001 0.3810000122
0.02099999972 -0.2790000141 0.3829999864
0.02099999972 -0.27700001 0.3829999864
0.02300000004 -0.27700001 0.3829999864
0.02500000037 -0.2790000141 0.3770000041
0.02500000037 -0.27700001 0.3770000041
0.02500000037 -0.27700001 0.3790000081
0.0270000007 -0.275000006 0.3770000041
0.0270000007 -0.275000006 0.3790000081
0.0270000007 -0.2730000019 0.3790000081
0.02899999917 -0.275000006 0.3770000041
0.02500000037 -0.275000006 0.3810000122
0.02500000037 -0.275000006 0.3829999864
0.02500000037 -0.2730000019 0.3829999864
0.03099999949 -0.2669999897 0.3709999919
0.03099999949 -0.2709999979 0.3729999959
0.03099999949 -0.2689999938 0.3729999959
0.02899999917 -0.2669999897 0.3729999959
0.03099999949 -0.2649999857 0.3729999959
0.02899999917 -0.2669999897 0.375
0.02899999917 -0.2649999857 0.375
0.03099999949 -0.2649999857 0.375
0.03099999949 -0.2630000114 0.375
0.0270000007 -0.2689999938 0.3770000041
0.0270000007 -0.2689999938 0.3790000081
0.02899999917 -0.2709999979 0.3770000041
0.0270000007 -0.2669999897 0.3790000081
0.02899999917 -0.2669999897 0.3770000041
0.02899999917 -0.2649999857 0.3770000041
0.03099999949 -0.2649999857 0.3770000041
0.02899999917 -0.2669999897 0.3790000081
0.02899999917 -0.2649999857 0.3790000081
0.02500000037 -0.2709999979 0.3810000122
0.02500000037 -0.2689999938 0.3810000122
0.0270000007 -0.2689999938 0.3810000122
0.02500000037 -0.2709999979 0.3829999864
0.02500000037 -0.2689999938 0.3829999864
0.0270000007 -0.2689999938 0.3829999864
0.0270000007 -0.2669999897 0.3810000122
0.0270000007 -0.2669999897 0.3829999864
0.02899999917 -0.2669999897 0.3810000122
0.02899999917 -0.2649999857 0.3810000122
0.03099999949 -0.2649999857 0.3810000122
0.02899999917 -0.2669999897 0.3829999864
0.02899999917 -0.2649999857 0.3829999864
0.03099999949 -0.2630000114 0.3770000041
0.03099999949 -0.2630000114 0.3790000081
0.04500000179 -0.27700001 0.3569999933
0.04300000146 -0.275000006 0.3589999974
0.04300000146 -0.2730000019 0.3589999974
0.0390000008 -0.2790000141 0.3630000055
0.0390000008 -0.2730000019 0.3630000055
0.03299999982 -0.2790000141 0.3670000136
0.03700000048 -0.275000006 0.3670000136
0.04100000113 -0.275000006 0.3630000055
0.04300000146 -0.275000006 0.3630000055
0.04100000113 -0.2730000019 0.3630000055
0.05099999905 -0.2809999883 0.3529999852
0.04899999872 -0.2790000141 0.3529999852
0.04899999872 -0.2790000141 0.3549999893
0.05900000036 -0.275000006 0.3670000136
0.03700000048 -0.2709999979 0.3630000055
0.03700000048 -0.2689999938 0.3630000055
0.03700000048 -0.2649999857 0.3670000136
0.06300000101 -0.2590000033 0.3569999933
0.06300000101 -0.2569999993 0.3569999933
0.06300000101 -0.2709999979 0.3650000095
0.06100000069 -0.2709999979 0.3670000136
0.06100000069 -0.2689999938 0.3670000136
0.06100000069 -0.2669999897 0.3650000095
0.06100000069 -0.2649999857 0.3650000095
0.06300000101 -0.2649999857 0.3650000095
0.06100000069 -0.2669999897 0.3670000136
0.06300000101 -0.2630000114 0.3630000055
0.06100000069 -0.2610000074 0.3630000055
0.05900000036 -0.2569999993 0.3630000055
0.06100000069 -0.2590000033 0.3610000014
0.06100000069 -0.2569999993 0.3610000014
0.06100000069 -0.2590000033 0.3630000055
0.05900000036 -0.2630000114 0.3670000136
0.05900000036 -0.2610000074 0.3670000136
0.06100000069 -0.2610000074 0.3650000095
0.05900000036 -0.2590000033 0.3670000136
0.05900000036 -0.2569999993 0.3670000136
0.06100000069 -0.2590000033 0.3650000095
0.06100000069 -0.2569999993 0.3650000095
0.04699999839 -0.2730000019 0.3770000041
0.04500000179 -0.275000006 0.3790000081
0.04699999839 -0.2730000019 0.3790000081
0.04100000113 -0.275000006 0.3829999864
0.04300000146 -0.2730000019 0.3829999864
0.04500000179 -0.2730000019 0.3829999864
0.05299999937 -0.275000006 0.3709999919
0.05299999937 -0.2730000019 0.3709999919
0.05099999905 -0.2730000019 0.375
0.05700000003 -0.2730000019 0.3689999878
0.04899999872 -0.2730000019 0.3770000041
0.03500000015 -0.2709999979 0.3689999878
0.03299999982 -0.2689999938 0.3689999878
0.03299999982 -0.2669999897 0.3689999878
0.03299999982 -0.2649999857 0.3689999878
0.03299999982 -0.2649999857 0.3729999959
0.03299999982 -0.2630000114 0.3729999959
0.03299999982 -0.2630000114 0.375
0.04699999839 -0.2709999979 0.3810000122
0.04500000179 -0.2709999979 0.3829999864
0.05099999905 -0.2709999979 0.375
0.05299999937 -0.2709999979 0.3729999959
0.0549999997 -0.2689999938 0.375
0.0549999997 -0.2669999897 0.375
0.0549999997 -0.2649999857 0.375
0.05900000036 -0.2689999938 0.3689999878
0.05700000003 -0.2709999979 0.3709999919
0.05900000036 -0.2649999857 0.3689999878
0.05700000003 -0.2669999897 0.3709999919
0.05900000036 -0.2669999897 0.3709999919
0.05700000003 -0.2689999938 0.3729999959
0.05700000003 -0.2649999857 0.3729999959
0.0549999997 -0.2630000114 0.3729999959
0.0549999997 -0.2630000114 0.375
0.0549999997 -0.2610000074 0.375
0.0549999997 -0.2590000033 0.3729999959
0.0549999997 -0.2569999993 0.375
0.05700000003 -0.2610000074 0.3689999878
0.05700000003 -0.2630000114 0.3709999919
0.05900000036 -0.2590000033 0.3689999878
0.05700000003 -0.2569999993 0.3689999878
0.05700000003 -0.2590000033 0.3709999919
0.05700000003 -0.2569999993 0.3709999919
0.05700000003 -0.2610000074 0.3729999959
0.05700000003 -0.2569999993 0.3729999959
0.04899999872 -0.2709999979 0.3770000041
0.05099999905 -0.2689999938 0.3790000081
0.05299999937 -0.2709999979 0.3770000041
0.05299999937 -0.2689999938 0.3770000041
0.05299999937 -0.2669999897 0.3770000041
0.0549999997 -0.2649999857 0.3770000041
0.05299999937 -0.2669999897 0.3790000081
0.05299999937 -0.2649999857 0.3790000081
0.04899999872 -0.2709999979 0.3810000122
0.05099999905 -0.2709999979 0.3810000122
0.05099999905 -0.2689999938 0.3810000122
0.04899999872 -0.2689999938 0.3829999864
0.05099999905 -0.2669999897 0.3810000122
0.05099999905 -0.2649999857 0.3810000122
0.05099999905 -0.2649999857 0.3829999864
0.05299999937 -0.2630000114 0.3770000041
0.0549999997 -0.2630000114 0.3770000041
0.05299999937 -0.2610000074 0.3770000041
0.05299999937 -0.2630000114 0.3790000081
0.05299999937 -0.2610000074 0.3790000081
0.0549999997 -0.2590000033 0.3770000041
0.0549999997 -0.2569999993 0.3770000041
0.05299999937 -0.2590000033 0.3790000081
0.05299999937 -0.2569999993 0.3790000081
0.05099999905 -0.2630000114 0.3810000122
0.05099999905 -0.2630000114 0.3829999864
0.05099999905 -0.2610000074 0.3829999864
0.05299999937 -0.2610000074 0.3810000122
0.05099999905 -0.2590000033 0.3829999864
0.05299999937 -0.2590000033 0.3810000122
0.05299999937 -0.2569999993 0.3810000122
0.05299999937 -0.2590000033 0.3829999864
0.05299999937 -0.2569999993 0.3829999864
0.06700000167 -0.2569999993 0.351000011
0.07100000232 -0.2649999857 0.3529999852
0.06700000167 -0.2669999897 0.3589999974
0.06499999762 -0.2649999857 0.3589999974
0.06700000167 -0.2610000074 0.3549999893
0.06899999827 -0.2630000114 0.3549999893
0.06700000167 -0.2590000033 0.3549999893
0.06499999762 -0.2569999993 0.3549999893
0.06499999762 -0.2630000114 0.3589999974
0.06499999762 -0.2610000074 0.3589999974
0.06499999762 -0.2590000033 0.3589999974
0.06700000167 -0.2689999938 0.3610000014
0.06499999762 -0.2709999979 0.3630000055
0.01099999994 -0.3529999852 0.3950000107
0.01499999966 -0.3589999974 0.398999989
0.008999999613 -0.3529999852 0.398999989
0.01300000027 -0.3549999893 0.3970000148
0.02099999972 -0.3689999878 0.4070000052
0.0270000007 -0.3689999878 0.4009999931
0.02099999972 -0.3689999878 0.4149999917
0.01300000027 -0.3569999933 0.4009999931
0.01099999994 -0.3549999893 0.4009999931
0.01099999994 -0.3549999893 0.4029999971
0.01300000027 -0.3569999933 0.4050000012
0.01300000027 -0.3569999933 0.4070000052
0.01099999994 -0.3549999893 0.4050000012
0.008999999613 -0.3529999852 0.4050000012
0.008999999613 -0.3549999893 0.4070000052
0.008999999613 -0.3529999852 0.4070000052
0.01300000027 -0.3630000055 0.4149999917
0.01300000027 -0.3610000014 0.4149999917
0.007000000216 -0.3529999852 0.4090000093
0.007000000216 -0.3529999852 0.4149999917
0.01099999994 -0.3569999933 0.4110000134
0.01300000027 -0.3589999974 0.4090000093
0.01300000027 -0.3589999974 0.4110000134
0.01099999994 -0.3549999893 0.4090000093
0.008999999613 -0.3529999852 0.4110000134
0.01099999994 -0.3569999933 0.4129999876
0.01099999994 -0.3569999933 0.4149999917
0.008999999613 -0.3549999893 0.4129999876
0.008999999613 -0.3529999852 0.4129999876
0.01700000092 -0.3630000055 0.4029999971
0.02099999972 -0.3670000136 0.4070000052
0.01700000092 -0.3630000055 0.4050000012
0.01700000092 -0.3630000055 0.4070000052
0.01700000092 -0.3630000055 0.4090000093
0.01700000092 -0.3650000095 0.4129999876
0.01700000092 -0.3670000136 0.4149999917
0.01300000027 -0.3490000069 0.3849999905
0.01099999994 -0.3449999988 0.3869999945
0.01099999994 -0.3490000069 0.3910000026
0.008999999613 -0.3470000029 0.3910000026
0.007000000216 -0.3370000124 0.3849999905
0.007000000216 -0.3409999907 0.3889999986
0.004999999888 -0.3389999866 0.3889999986
0.004999999888 -0.3370000124 0.3889999986
0.008999999613 -0.3409999907 0.3849999905
0.008999999613 -0.3389999866 0.3849999905
0.008999999613 -0.3429999948 0.3889999986
0.007000000216 -0.3449999988 0.3930000067
0.004999999888 -0.3449999988 0.3950000107
0.007000000216 -0.3449999988 0.3950000107
0.007000000216 -0.3490000069 0.398999989
0.007000000216 -0.3470000029 0.3970000148
0.004999999888 -0.3449999988 0.398999989
0.01099999994 -0.351000011 0.3930000067
0.008999999613 -0.3490000069 0.3950000107
0.008999999613 -0.3490000069 0.3970000148
0.003000000026 -0.3409999907 0.3950000107
0.007000000216 -0.3429999948 0.3930000067
0.004999999888 -0.3409999907 0.3930000067
0.004999999888 -0.3429999948 0.3950000107
0.003000000026 -0.3370000124 0.3930000067
0.003000000026 -0.3389999866 0.3950000107
0.003000000026 -0.3370000124 0.3950000107
0.004999999888 -0.3389999866 0.3930000067
0.003000000026 -0.3429999948 0.398999989
0.003000000026 -0.3409999907 0.398999989
0.004999999888 -0.3429999948 0.398999989
0.003000000026 -0.3389999866 0.398999989
0.001000000047 -0.3370000124 0.398999989
0.007000000216 -0.3350000083 0.3849999905
0.007000000216 -0.3330000043 0.3849999905
0.003000000026 -0.3310000002 0.3869999945
0.003000000026 -0.3289999962 0.3869999945
0.003000000026 -0.3330000043 0.3889999986
0.003000000026 -0.3330000043 0.3910000026
0.004999999888 -0.3350000083 0.3889999986
0.004999999888 -0.3330000043 0.3889999986
0.003000000026 -0.3310000002 0.3889999986
0.003000000026 -0.3310000002 0.3910000026
0.003000000026 -0.3289999962 0.3910000026
0.003000000026 -0.3269999921 0.3849999905
0.003000000026 -0.3269999921 0.3869999945
0.004999999888 -0.3249999881 0.3849999905
0.003000000026 -0.3230000138 0.3869999945
0.003000000026 -0.3210000098 0.3869999945
0.001000000047 -0.3269999921 0.3889999986
0.003000000026 -0.3249999881 0.3889999986
0.001000000047 -0.3269999921 0.3910000026
0.003000000026 -0.3230000138 0.3889999986
0.001000000047 -0.3210000098 0.3889999986
0.001000000047 -0.3230000138 0.3910000026
0.001000000047 -0.3210000098 0.3910000026
0.003000000026 -0.3350000083 0.3930000067
0.003000000026 -0.3330000043 0.3930000067
0.001000000047 -0.3350000083 0.3950000107
0.001000000047 -0.3330000043 0.3950000107
0.001000000047 -0.3289999962 0.3930000067
0.001000000047 -0.3310000002 0.3950000107
0.001000000047 -0.3289999962 0.3950000107
0.001000000047 -0.3330000043 0.3970000148
0.001000000047 -0.3350000083 0.398999989
0.001000000047 -0.3330000043 0.398999989
0.001000000047 -0.3310000002 0.3970000148
0.001000000047 -0.3289999962 0.3970000148
0.001000000047 -0.3269999921 0.3930000067
0.001000000047 -0.3249999881 0.3930000067
0.001000000047 -0.3210000098 0.3930000067
0.007000000216 -0.3490000069 0.4029999971
0.003000000026 -0.3449999988 0.4029999971
0.007000000216 -0.3470000029 0.4009999931
0.004999999888 -0.3449999988 0.4009999931
0.004999999888 -0.3470000029 0.4029999971
0.004999999888 -0.3449999988 0.4029999971
0.007000000216 -0.3490000069 0.4050000012
0.007000000216 -0.351000011 0.4070000052
0.004999999888 -0.3490000069 0.4070000052
0.003000000026 -0.3449999988 0.4050000012
0.003000000026 -0.3449999988 0.4070000052
0.004999999888 -0.3470000029 0.4050000012
0.004999999888 -0.3470000029 0.4070000052
0.008999999613 -0.351000011 0.4009999931
0.003000000026 -0.3429999948 0.4009999931
0.003000000026 -0.3409999907 0.4009999931
0.003000000026 -0.3429999948 0.4029999971
0.003000000026 -0.3409999907 0.4029999971
0.001000000047 -0.3389999866 0.4009999931
0.001000000047 -0.3370000124 0.4009999931
0.001000000047 -0.3389999866 0.4029999971
0.001000000047 -0.3370000124 0.4029999971
0.003000000026 -0.3429999948 0.4050000012
0.001000000047 -0.3409999907 0.4050000012
0.003000000026 -0.3429999948 0.4070000052
0.001000000047 -0.3409999907 0.4070000052
0.001000000047 -0.3389999866 0.4050000012
0.001000000047 -0.3370000124 0.4050000012
0.001000000047 -0.3389999866 0.4070000052
0.007000000216 -0.351000011 0.4090000093
0.004999999888 -0.3490000069 0.4090000093
0.007000000216 -0.351000011 0.4110000134
0.004999999888 -0.3490000069 0.4110000134
0.003000000026 -0.3449999988 0.4090000093
0.003000000026 -0.3449999988 0.4110000134
0.004999999888 -0.3470000029 0.4090000093
0.004999999888 -0.3470000029 0.4110000134
0.007000000216 -0.351000011 0.4129999876
0.004999999888 -0.3490000069 0.4129999876
0.007000000216 -0.351000011 0.4149999917
0.004999999888 -0.3490000069 0.4149999917
0.003000000026 -0.3449999988 0.4129999876
0.003000000026 -0.3470000029 0.4149999917
0.003000000026 -0.3449999988 0.4149999917
0.004999999888 -0.3470000029 0.4129999876
0.003000000026 -0.3429999948 0.4090000093
0.001000000047 -0.3409999907 0.4090000093
0.001000000047 -0.3429999948 0.4110000134
0.003000000026 -0.3429999948 0.4110000134
0.001000000047 -0.3409999907 0.4110000134
0.001000000047 -0.3389999866 0.4090000093
0.001000000047 -0.3370000124 0.4090000093
0.001000000047 -0.3389999866 0.4110000134
0.001000000047 -0.3370000124 0.4110000134
0.003000000026 -0.3429999948 0.4129999876
0.001000000047 -0.3409999907 0.4129999876
0.003000000026 -0.3429999948 0.4149999917
0.001000000047 -0.3409999907 0.4149999917
0.001000000047 -0.3389999866 0.4129999876
0.001000000047 -0.3389999866 0.4149999917
0.001000000047 -0.3350000083 0.4009999931
0.001000000047 -0.3330000043 0.4009999931
0.001000000047 -0.3350000083 0.4029999971
0.02300000004 -0.3689999878 0.4210000038
0.01099999994 -0.3610000014 0.4189999998
0.01300000027 -0.3630000055 0.4169999957
0.01499999966 -0.3630000055 0.4189999998
0.01499999966 -0.3630000055 0.4210000038
0.01300000027 -0.3610000014 0.4210000038
0.01499999966 -0.3630000055 0.4230000079
0.007000000216 -0.3529999852 0.4169999957
0.007000000216 -0.3549999893 0.4189999998
0.007000000216 -0.3549999893 0.4210000038
0.004999999888 -0.3529999852 0.4210000038
0.007000000216 -0.3529999852 0.4210000038
0.007000000216 -0.3549999893 0.4230000079
0.004999999888 -0.3529999852 0.4230000079
0.01099999994 -0.3589999974 0.4189999998
0.008999999613 -0.3569999933 0.4189999998
0.008999999613 -0.3549999893 0.4169999957
0.01099999994 -0.3589999974 0.4210000038
0.008999999613 -0.3569999933 0.4210000038
0.01099999994 -0.3589999974 0.4230000079
0.008999999613 -0.3569999933 0.4230000079
0.01499999966 -0.3630000055 0.4250000119
0.01300000027 -0.3610000014 0.4250000119
0.01499999966 -0.3630000055 0.4269999862
0.01300000027 -0.3610000014 0.4269999862
0.01499999966 -0.3610000014 0.4289999902
0.007000000216 -0.3529999852 0.4250000119
0.007000000216 -0.3549999893 0.4269999862
0.007000000216 -0.3529999852 0.4269999862
0.007000000216 -0.3529999852 0.4289999902
0.007000000216 -0.3529999852 0.4309999943
0.01099999994 -0.3589999974 0.4250000119
0.008999999613 -0.3569999933 0.4250000119
0.01099999994 -0.3589999974 0.4269999862
0.008999999613 -0.3569999933 0.4269999862
0.008999999613 -0.3549999893 0.4250000119
0.008999999613 -0.3549999893 0.4269999862
0.01099999994 -0.3589999974 0.4289999902
0.01099999994 -0.3569999933 0.4289999902
0.01099999994 -0.3569999933 0.4309999943
0.01300000027 -0.3589999974 0.4289999902
0.01300000027 -0.3589999974 0.4309999943
0.008999999613 -0.3549999893 0.4289999902
0.008999999613 -0.3549999893 0.4309999943
0.01099999994 -0.3549999893 0.4309999943
0.008999999613 -0.3529999852 0.4309999943
0.01899999939 -0.3670000136 0.4189999998
0.01700000092 -0.3650000095 0.4189999998
0.01700000092 -0.3650000095 0.4230000079
0.02099999972 -0.3670000136 0.4210000038
0.01899999939 -0.3670000136 0.4250000119
0.01899999939 -0.3650000095 0.4250000119
0.01899999939 -0.3650000095 0.4269999862
0.01700000092 -0.3610000014 0.4309999943
0.008999999613 -0.3529999852 0.4329999983
0.004999999888 -0.351000011 0.4169999957
0.004999999888 -0.3490000069 0.4169999957
0.003000000026 -0.3470000029 0.4189999998
0.001000000047 -0.3449999988 0.4189999998
0.003000000026 -0.3490000069 0.4210000038
0.003000000026 -0.3490000069 0.4230000079
0.004999999888 -0.351000011 0.4210000038
0.004999999888 -0.351000011 0.4230000079
0.003000000026 -0.3470000029 0.4210000038
0.001000000047 -0.3449999988 0.4210000038
0.001000000047 -0.3470000029 0.4230000079
0.003000000026 -0.3470000029 0.4230000079
0.001000000047 -0.3449999988 0.4230000079
0.001000000047 -0.3429999948 0.4189999998
0.001000000047 -0.3429999948 0.4210000038
0.001000000047 -0.3429999948 0.4230000079
0.003000000026 -0.3490000069 0.4269999862
0.004999999888 -0.351000011 0.4250000119
0.004999999888 -0.3490000069 0.4250000119
0.004999999888 -0.351000011 0.4269999862
0.003000000026 -0.3470000029 0.4250000119
0.001000000047 -0.3449999988 0.4250000119
0.003000000026 -0.3470000029 0.4269999862
0.003000000026 -0.3449999988 0.4269999862
0.004999999888 -0.351000011 0.4289999902
0.007000000216 -0.351000011 0.4289999902
0.004999999888 -0.3490000069 0.4289999902
0.007000000216 -0.351000011 0.4309999943
0.004999999888 -0.3490000069 0.4309999943
0.003000000026 -0.3470000029 0.4289999902
0.003000000026 -0.3449999988 0.4289999902
0.003000000026 -0.3449999988 0.4309999943
0.004999999888 -0.3470000029 0.4309999943
0.001000000047 -0.3429999948 0.4250000119
0.001000000047 -0.3409999907 0.4250000119
0.001000000047 -0.3429999948 0.4269999862
0.001000000047 -0.3409999907 0.4269999862
0.001000000047 -0.3429999948 0.4289999902
0.001000000047 -0.3409999907 0.4289999902
0.001000000047 -0.3429999948 0.4309999943
0.001000000047 -0.3409999907 0.4309999943
0.001000000047 -0.3389999866 0.4289999902
0.001000000047 -0.3389999866 0.4309999943
0.001000000047 -0.3370000124 0.4309999943
0.007000000216 -0.3490000069 0.4329999983
0.003000000026 -0.3449999988 0.4329999983
0.004999999888 -0.3470000029 0.4329999983
0.007000000216 -0.3470000029 0.4329999983
0.004999999888 -0.3449999988 0.4329999983
0.007000000216 -0.3449999988 0.4350000024
0.008999999613 -0.351000011 0.4329999983
0.003000000026 -0.3429999948 0.4329999983
0.003000000026 -0.3409999907 0.4329999983
0.004999999888 -0.3429999948 0.4329999983
0.004999999888 -0.3429999948 0.4350000024
0.004999999888 -0.3409999907 0.4350000024
0.001000000047 -0.3389999866 0.4329999983
0.003000000026 -0.3389999866 0.4329999983
0.001000000047 -0.3370000124 0.4329999983
0.003000000026 -0.3389999866 0.4350000024
0.003000000026 -0.3370000124 0.4350000024
0.004999999888 -0.3389999866 0.4350000024
0.001000000047 -0.3350000083 0.4329999983
0.001000000047 -0.3330000043 0.4329999983
0.001000000047 -0.3350000083 0.4350000024
0.003000000026 -0.3350000083 0.4350000024
0.001000000047 -0.3330000043 0.4350000024
0.003000000026 -0.3330000043 0.4350000024
0.001000000047 -0.3310000002 0.4329999983
0.001000000047 -0.3289999962 0.4329999983
0.001000000047 -0.3310000002 0.4350000024
0.003000000026 -0.3310000002 0.4350000024
0.001000000047 -0.3289999962 0.4350000024
0.001000000047 -0.3269999921 0.4329999983
0.001000000047 -0.3249999881 0.4329999983
0.001000000047 -0.3269999921 0.4350000024
0.001000000047 -0.3249999881 0.4350000024
0.001000000047 -0.3230000138 0.4329999983
0.001000000047 -0.3210000098 0.4329999983
0.001000000047 -0.3230000138 0.4350000024
0.001000000047 -0.3210000098 0.4350000024
0.003000000026 -0.3190000057 0.3849999905
0.003000000026 -0.3170000017 0.3869999945
0.003000000026 -0.3149999976 0.3849999905
0.003000000026 -0.3129999936 0.3849999905
0.003000000026 -0.3149999976 0.3869999945
0.003000000026 -0.3129999936 0.3869999945
0.004999999888 -0.3149999976 0.3849999905
0.001000000047 -0.3190000057 0.3889999986
0.003000000026 -0.3190000057 0.3889999986
0.001000000047 -0.3170000017 0.3889999986
0.001000000047 -0.3190000057 0.3910000026
0.001000000047 -0.3170000017 0.3910000026
0.001000000047 -0.3149999976 0.3889999986
0.001000000047 -0.3129999936 0.3889999986
0.001000000047 -0.3149999976 0.3910000026
0.001000000047 -0.3129999936 0.3910000026
0.003000000026 -0.3109999895 0.3869999945
0.003000000026 -0.3089999855 0.3869999945
0.004999999888 -0.3109999895 0.3849999905
0.003000000026 -0.3050000072 0.3849999905
0.001000000047 -0.3070000112 0.3869999945
0.001000000047 -0.3050000072 0.3869999945
0.003000000026 -0.3109999895 0.3889999986
0.001000000047 -0.3109999895 0.3910000026
0.001000000047 -0.3070000112 0.3889999986
0.001000000047 -0.3050000072 0.3889999986
0.001000000047 -0.3050000072 0.3910000026
0.001000000047 -0.3170000017 0.3930000067
0.001000000047 -0.3129999936 0.3930000067
0.003000000026 -0.3030000031 0.3849999905
0.001000000047 -0.3030000031 0.3869999945
0.003000000026 -0.3030000031 0.3869999945
0.003000000026 -0.300999999 0.3869999945
0.004999999888 -0.300999999 0.3849999905
0.003000000026 -0.298999995 0.3869999945
0.004999999888 -0.298999995 0.3849999905
0.004999999888 -0.2969999909 0.3849999905
0.004999999888 -0.298999995 0.3869999945
0.004999999888 -0.2969999909 0.3869999945
0.001000000047 -0.3030000031 0.3889999986
0.003000000026 -0.3030000031 0.3889999986
0.001000000047 -0.300999999 0.3889999986
0.003000000026 -0.300999999 0.3889999986
0.001000000047 -0.3030000031 0.3910000026
0.001000000047 -0.300999999 0.3910000026
0.003000000026 -0.298999995 0.3889999986
0.003000000026 -0.298999995 0.3910000026
0.003000000026 -0.2969999909 0.3910000026
0.004999999888 -0.2969999909 0.3889999986
0.007000000216 -0.2949999869 0.3849999905
0.007000000216 -0.2930000126 0.3849999905
0.004999999888 -0.2949999869 0.3869999945
0.007000000216 -0.2949999869 0.3869999945
0.007000000216 -0.2930000126 0.3869999945
0.007000000216 -0.2910000086 0.3869999945
0.003000000026 -0.2949999869 0.3910000026
0.004999999888 -0.2949999869 0.3889999986
0.004999999888 -0.2930000126 0.3889999986
0.004999999888 -0.2949999869 0.3910000026
0.004999999888 -0.2930000126 0.3910000026
0.007000000216 -0.2910000086 0.3889999986
0.01300000027 -0.2930000126 0.3869999945
0.008999999613 -0.2910000086 0.3849999905
0.01099999994 -0.2910000086 0.3849999905
0.008999999613 -0.2890000045 0.3849999905
0.01099999994 -0.2890000045 0.3849999905
0.01300000027 -0.2910000086 0.3849999905
0.01300000027 -0.2890000045 0.3849999905
0.01499999966 -0.2890000045 0.3849999905
0.01300000027 -0.2910000086 0.3869999945
0.01499999966 -0.2910000086 0.3869999945
0.01499999966 -0.2890000045 0.3869999945
0.01099999994 -0.2890000045 0.3910000026
0.01300000027 -0.2910000086 0.3889999986
0.01300000027 -0.2890000045 0.3910000026
0.001000000047 -0.3030000031 0.3930000067
0.001000000047 -0.300999999 0.3930000067
0.001000000047 -0.300999999 0.3950000107
0.001000000047 -0.298999995 0.3930000067
0.003000000026 -0.2969999909 0.3930000067
0.001000000047 -0.298999995 0.3950000107
0.001000000047 -0.2969999909 0.3950000107
0.001000000047 -0.300999999 0.3970000148
0.001000000047 -0.298999995 0.3970000148
0.001000000047 -0.2969999909 0.3970000148
0.001000000047 -0.2969999909 0.398999989
0.003000000026 -0.2949999869 0.3930000067
0.003000000026 -0.2930000126 0.3930000067
0.003000000026 -0.2949999869 0.3950000107
0.003000000026 -0.2930000126 0.3950000107
0.004999999888 -0.2930000126 0.3930000067
0.004999999888 -0.2910000086 0.3930000067
0.004999999888 -0.2910000086 0.3950000107
0.007000000216 -0.2890000045 0.3950000107
0.001000000047 -0.2949999869 0.3970000148
0.003000000026 -0.2949999869 0.3970000148
0.003000000026 -0.2930000126 0.3970000148
0.001000000047 -0.2949999869 0.398999989
0.003000000026 -0.2949999869 0.398999989
0.003000000026 -0.2930000126 0.398999989
0.004999999888 -0.2910000086 0.3970000148
0.004999999888 -0.2890000045 0.3970000148
0.007000000216 -0.2890000045 0.3970000148
0.004999999888 -0.2910000086 0.398999989
0.004999999888 -0.2890000045 0.398999989
0.007000000216 -0.2890000045 0.398999989
0.001000000047 -0.2969999909 0.4009999931
0.001000000047 -0.2969999909 0.4029999971
0.001000000047 -0.2969999909 0.4050000012
0.001000000047 -0.2969999909 0.4070000052
0.001000000047 -0.2949999869 0.4009999931
0.003000000026 -0.2949999869 0.4009999931
0.003000000026 -0.2930000126 0.4009999931
0.001000000047 -0.2949999869 0.4029999971
0.003000000026 -0.2930000126 0.4029999971
0.003000000026 -0.2910000086 0.4009999931
0.004999999888 -0.2910000086 0.4009999931
0.004999999888 -0.2890000045 0.4009999931
0.007000000216 -0.2890000045 0.4009999931
0.004999999888 -0.2910000086 0.4029999971
0.004999999888 -0.2890000045 0.4029999971
0.007000000216 -0.2890000045 0.4029999971
0.001000000047 -0.2949999869 0.4050000012
0.003000000026 -0.2949999869 0.4050000012
0.003000000026 -0.2930000126 0.4050000012
0.001000000047 -0.2949999869 0.4070000052
0.003000000026 -0.2930000126 0.4070000052
0.003000000026 -0.2910000086 0.4050000012
0.003000000026 -0.2910000086 0.4070000052
0.004999999888 -0.2910000086 0.4050000012
0.004999999888 -0.2890000045 0.4050000012
0.007000000216 -0.2890000045 0.4050000012
0.004999999888 -0.2910000086 0.4070000052
0.004999999888 -0.2890000045 0.4070000052
0.007000000216 -0.2890000045 0.4070000052
0.001000000047 -0.2969999909 0.4090000093
0.001000000047 -0.2969999909 0.4110000134
0.001000000047 -0.2969999909 0.4129999876
0.001000000047 -0.298999995 0.4149999917
0.001000000047 -0.2969999909 0.4149999917
0.001000000047 -0.2949999869 0.4090000093
0.003000000026 -0.2949999869 0.4090000093
0.003000000026 -0.2930000126 0.4090000093
0.001000000047 -0.2949999869 0.4110000134
0.003000000026 -0.2949999869 0.4110000134
0.003000000026 -0.2930000126 0.4110000134
0.004999999888 -0.2930000126 0.4110000134
0.004999999888 -0.2910000086 0.4090000093
0.004999999888 -0.2890000045 0.4090000093
0.007000000216 -0.2890000045 0.4090000093
0.004999999888 -0.2910000086 0.4110000134
0.007000000216 -0.2890000045 0.4110000134
0.001000000047 -0.2949999869 0.4129999876
0.003000000026 -0.2949999869 0.4129999876
0.003000000026 -0.2930000126 0.4129999876
0.003000000026 -0.2949999869 0.4149999917
0.003000000026 -0.2930000126 0.4149999917
0.004999999888 -0.2930000126 0.4129999876
0.004999999888 -0.2930000126 0.4149999917
0.004999999888 -0.2910000086 0.4129999876
0.007000000216 -0.2910000086 0.4129999876
0.007000000216 -0.2890000045 0.4129999876
0.004999999888 -0.2910000086 0.4149999917
0.007000000216 -0.2910000086 0.4149999917
0.007000000216 -0.2890000045 0.4149999917
0.008999999613 -0.2890000045 0.4149999917
0.01099999994 -0.2870000005 0.3849999905
0.01300000027 -0.2870000005 0.3849999905
0.01499999966 -0.2870000005 0.3849999905
0.01300000027 -0.2849999964 0.3849999905
0.01499999966 -0.2870000005 0.3869999945
0.01300000027 -0.2849999964 0.3869999945
0.01499999966 -0.2829999924 0.3849999905
0.01300000027 -0.2829999924 0.3869999945
0.01499999966 -0.2829999924 0.3869999945
0.01099999994 -0.2870000005 0.3910000026
0.01099999994 -0.2849999964 0.3910000026
0.01300000027 -0.2849999964 0.3889999986
0.01499999966 -0.2829999924 0.3889999986
0.01499999966 -0.2809999883 0.3889999986
0.01300000027 -0.2829999924 0.3910000026
0.01499999966 -0.2829999924 0.3910000026
0.01499999966 -0.2809999883 0.3910000026
0.007000000216 -0.2870000005 0.398999989
0.01099999994 -0.2849999964 0.3930000067
0.008999999613 -0.2870000005 0.3950000107
0.008999999613 -0.2849999964 0.3950000107
0.01099999994 -0.2849999964 0.3950000107
0.01300000027 -0.2829999924 0.3930000067
0.01499999966 -0.2809999883 0.3930000067
0.01300000027 -0.2829999924 0.3950000107
0.01300000027 -0.2809999883 0.3950000107
0.01499999966 -0.2809999883 0.3950000107
0.008999999613 -0.2870000005 0.3970000148
0.008999999613 -0.2849999964 0.3970000148
0.01099999994 -0.2849999964 0.3970000148
0.008999999613 -0.2870000005 0.398999989
0.008999999613 -0.2849999964 0.398999989
0.01099999994 -0.2849999964 0.398999989
0.01099999994 -0.2829999924 0.3970000148
0.01300000027 -0.2829999924 0.3970000148
0.01499999966 -0.2809999883 0.3970000148
0.01300000027 -0.2829999924 0.398999989
0.01300000027 -0.2809999883 0.398999989
0.01499999966 -0.2809999883 0.398999989
0.01499999966 -0.2790000141 0.3970000148
0.01499999966 -0.2790000141 0.398999989
0.01700000092 -0.2809999883 0.3849999905
0.01700000092 -0.2809999883 0.3869999945
0.01700000092 -0.2809999883 0.3889999986
0.01700000092 -0.2809999883 0.3910000026
0.01899999939 -0.2790000141 0.3849999905
0.01700000092 -0.2790000141 0.3869999945
0.01899999939 -0.2790000141 0.3869999945
0.02099999972 -0.2790000141 0.3849999905
0.02099999972 -0.27700001 0.3849999905
0.02099999972 -0.27700001 0.3869999945
0.02300000004 -0.275000006 0.3849999905
0.02300000004 -0.2730000019 0.3849999905
0.02300000004 -0.275000006 0.3869999945
0.02300000004 -0.2730000019 0.3869999945
0.01700000092 -0.2790000141 0.3889999986
0.01899999939 -0.2790000141 0.3889999986
0.01700000092 -0.2790000141 0.3910000026
0.01899999939 -0.2790000141 0.3910000026
0.01899999939 -0.27700001 0.3910000026
0.02099999972 -0.27700001 0.3889999986
0.02099999972 -0.275000006 0.3889999986
0.02300000004 -0.275000006 0.3889999986
0.02300000004 -0.2730000019 0.3889999986
0.02099999972 -0.275000006 0.3910000026
0.02300000004 -0.2730000019 0.3910000026
0.01700000092 -0.2790000141 0.3930000067
0.01899999939 -0.27700001 0.3930000067
0.01700000092 -0.2790000141 0.3950000107
0.01899999939 -0.27700001 0.3950000107
0.01899999939 -0.275000006 0.3950000107
0.02099999972 -0.275000006 0.3930000067
0.02300000004 -0.2730000019 0.3930000067
0.02099999972 -0.275000006 0.3950000107
0.02099999972 -0.2730000019 0.3950000107
0.02300000004 -0.2730000019 0.3950000107
0.01700000092 -0.2790000141 0.3970000148
0.01700000092 -0.27700001 0.3970000148
0.01899999939 -0.27700001 0.3970000148
0.01700000092 -0.2790000141 0.398999989
0.01700000092 -0.27700001 0.398999989
0.01899999939 -0.27700001 0.398999989
0.01899999939 -0.275000006 0.398999989
0.02099999972 -0.275000006 0.3970000148
0.02099999972 -0.2730000019 0.3970000148
0.02300000004 -0.2730000019 0.3970000148
0.02099999972 -0.275000006 0.398999989
0.02300000004 -0.2730000019 0.398999989
0.03099999949 -0.275000006 0.3950000107
0.0270000007 -0.275000006 0.398999989
0.02899999917 -0.275000006 0.3970000148
0.03099999949 -0.275000006 0.3970000148
0.02899999917 -0.275000006 0.398999989
0.03099999949 -0.2730000019 0.398999989
0.02300000004 -0.2709999979 0.3889999986
0.02500000037 -0.2709999979 0.3849999905
0.02500000037 -0.2689999938 0.3849999905
0.0270000007 -0.2689999938 0.3849999905
0.02500000037 -0.2709999979 0.3869999945
0.02500000037 -0.2689999938 0.3869999945
0.0270000007 -0.2689999938 0.3869999945
0.0270000007 -0.2669999897 0.3849999905
0.0270000007 -0.2669999897 0.3869999945
0.02899999917 -0.2669999897 0.3849999905
0.02500000037 -0.2709999979 0.3889999986
0.02500000037 -0.2689999938 0.3889999986
0.0270000007 -0.2689999938 0.3889999986
0.02500000037 -0.2709999979 0.3910000026
0.02500000037 -0.2689999938 0.3910000026
0.0270000007 -0.2689999938 0.3910000026
0.02300000004 -0.2709999979 0.3930000067
0.02300000004 -0.2709999979 0.3970000148
0.02500000037 -0.2709999979 0.3930000067
0.02500000037 -0.2709999979 0.3950000107
0.007000000216 -0.2870000005 0.4009999931
0.007000000216 -0.2870000005 0.4029999971
0.007000000216 -0.2870000005 0.4050000012
0.007000000216 -0.2870000005 0.4070000052
0.008999999613 -0.2870000005 0.4009999931
0.008999999613 -0.2849999964 0.4009999931
0.01099999994 -0.2849999964 0.4009999931
0.008999999613 -0.2870000005 0.4029999971
0.008999999613 -0.2849999964 0.4029999971
0.01099999994 -0.2849999964 0.4029999971
0.01099999994 -0.2829999924 0.4009999931
0.01099999994 -0.2829999924 0.4029999971
0.01300000027 -0.2829999924 0.4009999931
0.01300000027 -0.2809999883 0.4009999931
0.01499999966 -0.2809999883 0.4009999931
0.01300000027 -0.2829999924 0.4029999971
0.01300000027 -0.2809999883 0.4029999971
0.01499999966 -0.2809999883 0.4029999971
0.008999999613 -0.2870000005 0.4050000012
0.008999999613 -0.2849999964 0.4050000012
0.01099999994 -0.2849999964 0.4050000012
0.008999999613 -0.2870000005 0.4070000052
0.008999999613 -0.2849999964 0.4070000052
0.01099999994 -0.2849999964 0.4070000052
0.01099999994 -0.2829999924 0.4050000012
0.01099999994 -0.2829999924 0.4070000052
0.01300000027 -0.2829999924 0.4050000012
0.01300000027 -0.2809999883 0.4050000012
0.01499999966 -0.2809999883 0.4050000012
0.01300000027 -0.2829999924 0.4070000052
0.01300000027 -0.2809999883 0.4070000052
0.01499999966 -0.2809999883 0.4070000052
0.01499999966 -0.2790000141 0.4009999931
0.01499999966 -0.2790000141 0.4029999971
0.01499999966 -0.2790000141 0.4050000012
0.01499999966 -0.2790000141 0.4070000052
0.007000000216 -0.2870000005 0.4090000093
0.008999999613 -0.2870000005 0.4090000093
0.008999999613 -0.2849999964 0.4090000093
0.01099999994 -0.2849999964 0.4090000093
0.008999999613 -0.2870000005 0.4110000134
0.01099999994 -0.2849999964 0.4110000134
0.01099999994 -0.2829999924 0.4110000134
0.01300000027 -0.2829999924 0.4090000093
0.01300000027 -0.2809999883 0.4090000093
0.01499999966 -0.2809999883 0.4090000093
0.01300000027 -0.2829999924 0.4110000134
0.01499999966 -0.2809999883 0.4110000134
0.008999999613 -0.2870000005 0.4129999876
0.01099999994 -0.2849999964 0.4129999876
0.008999999613 -0.2870000005 0.4149999917
0.01099999994 -0.2849999964 0.4149999917
0.01300000027 -0.2829999924 0.4129999876
0.01300000027 -0.2809999883 0.4129999876
0.01499999966 -0.2809999883 0.4129999876
0.01300000027 -0.2829999924 0.4149999917
0.01499999966 -0.2829999924 0.4149999917
0.01499999966 -0.2809999883 0.4149999917
0.01499999966 -0.2790000141 0.4090000093
0.01499999966 -0.2790000141 0.4110000134
0.01700000092 -0.2790000141 0.4009999931
0.01700000092 -0.27700001 0.4009999931
0.01899999939 -0.27700001 0.4009999931
0.01700000092 -0.2790000141 0.4029999971
0.01899999939 -0.27700001 0.4029999971
0.01899999939 -0.275000006 0.4029999971
0.02099999972 -0.275000006 0.4009999931
0.02099999972 -0.275000006 0.4029999971
0.01700000092 -0.2790000141 0.4050000012
0.01700000092 -0.27700001 0.4050000012
0.01899999939 -0.27700001 0.4050000012
0.01700000092 -0.2790000141 0.4070000052
0.01700000092 -0.27700001 0.4070000052
0.01899999939 -0.27700001 0.4070000052
0.02300000004 -0.27700001 0.4070000052
0.01899999939 -0.275000006 0.4070000052
0.02099999972 -0.275000006 0.4050000012
0.02500000037 -0.27700001 0.4009999931
0.0270000007 -0.275000006 0.4009999931
0.02500000037 -0.275000006 0.4029999971
0.0270000007 -0.275000006 0.4029999971
0.02899999917 -0.275000006 0.4009999931
0.03099999949 -0.275000006 0.4009999931
0.02899999917 -0.275000006 0.4029999971
0.03099999949 -0.275000006 0.4029999971
0.02500000037 -0.27700001 0.4050000012
0.0270000007 -0.27700001 0.4050000012
0.02500000037 -0.27700001 0.4070000052
0.0270000007 -0.27700001 0.4070000052
0.02899999917 -0.275000006 0.4050000012
0.03099999949 -0.2730000019 0.4050000012
0.02899999917 -0.275000006 0.4070000052
0.03099999949 -0.275000006 0.4070000052
0.03099999949 -0.2730000019 0.4070000052
0.01700000092 -0.2809999883 0.4149999917
0.01899999939 -0.2809999883 0.4149999917
0.02099999972 -0.2809999883 0.4129999876
0.02099999972 -0.2809999883 0.4149999917
0.01700000092 -0.2790000141 0.4090000093
0.01700000092 -0.27700001 0.4090000093
0.01899999939 -0.27700001 0.4090000093
0.01700000092 -0.2790000141 0.4110000134
0.01899999939 -0.2790000141 0.4110000134
0.01700000092 -0.27700001 0.4110000134
0.02099999972 -0.2790000141 0.4090000093
0.02300000004 -0.2790000141 0.4090000093
0.02300000004 -0.27700001 0.4090000093
0.02300000004 -0.2790000141 0.4110000134
0.01700000092 -0.2790000141 0.4129999876
0.01899999939 -0.2790000141 0.4129999876
0.02300000004 -0.2790000141 0.4129999876
0.02300000004 -0.2790000141 0.4149999917
0.02500000037 -0.2790000141 0.4090000093
0.02500000037 -0.27700001 0.4090000093
0.0270000007 -0.27700001 0.4090000093
0.02500000037 -0.27700001 0.4110000134
0.0270000007 -0.27700001 0.4110000134
0.0270000007 -0.275000006 0.4110000134
0.02899999917 -0.275000006 0.4090000093
0.03099999949 -0.2730000019 0.4090000093
0.02899999917 -0.275000006 0.4110000134
0.02500000037 -0.2790000141 0.4129999876
0.02500000037 -0.27700001 0.4129999876
0.03700000048 -0.275000006 0.3869999945
0.0390000008 -0.2730000019 0.3869999945
0.03500000015 -0.275000006 0.3910000026
0.03700000048 -0.275000006 0.3889999986
0.0390000008 -0.2730000019 0.3889999986
0.03700000048 -0.2730000019 0.3910000026
0.0390000008 -0.2730000019 0.3910000026
0.04100000113 -0.275000006 0.3849999905
0.04300000146 -0.2730000019 0.3849999905
0.04100000113 -0.2730000019 0.3869999945
0.04100000113 -0.2730000019 0.3910000026
0.03500000015 -0.275000006 0.3930000067
0.03299999982 -0.2730000019 0.3930000067
0.03500000015 -0.2730000019 0.3930000067
0.03299999982 -0.2730000019 0.3950000107
0.03500000015 -0.2730000019 0.3950000107
0.0390000008 -0.2730000019 0.3930000067
0.03700000048 -0.2730000019 0.3950000107
0.0390000008 -0.2730000019 0.3950000107
0.03299999982 -0.2730000019 0.3970000148
0.03500000015 -0.2730000019 0.3970000148
0.03299999982 -0.275000006 0.398999989
0.03500000015 -0.2730000019 0.398999989
0.03700000048 -0.2730000019 0.3970000148
0.03700000048 -0.2730000019 0.398999989
0.04300000146 -0.2709999979 0.3849999905
0.04300000146 -0.2709999979 0.3869999945
0.04500000179 -0.2709999979 0.3849999905
0.04699999839 -0.2709999979 0.3849999905
0.04699999839 -0.2689999938 0.3849999905
0.04699999839 -0.2689999938 0.3869999945
0.04699999839 -0.2669999897 0.3869999945
0.04100000113 -0.2709999979 0.3889999986
0.04300000146 -0.2709999979 0.3889999986
0.04100000113 -0.2709999979 0.3910000026
0.04300000146 -0.2709999979 0.3910000026
0.04300000146 -0.2689999938 0.3910000026
0.04500000179 -0.2709999979 0.3889999986
0.04500000179 -0.2689999938 0.3889999986
0.04500000179 -0.2689999938 0.3910000026
0.04699999839 -0.2669999897 0.3889999986
0.04699999839 -0.2649999857 0.3889999986
0.04500000179 -0.2669999897 0.3910000026
0.04699999839 -0.2669999897 0.3910000026
0.04699999839 -0.2649999857 0.3910000026
0.04699999839 -0.2630000114 0.3910000026
0.03700000048 -0.2709999979 0.3930000067
0.0390000008 -0.2709999979 0.3970000148
0.03700000048 -0.2709999979 0.398999989
0.0390000008 -0.2709999979 0.398999989
0.0390000008 -0.2689999938 0.398999989
0.04100000113 -0.2709999979 0.3930000067
0.04300000146 -0.2709999979 0.3930000067
0.04300000146 -0.2689999938 0.3930000067
0.04100000113 -0.2709999979 0.3950000107
0.04100000113 -0.2689999938 0.3950000107
0.04300000146 -0.2689999938 0.3950000107
0.04300000146 -0.2669999897 0.3950000107
0.04500000179 -0.2669999897 0.3930000067
0.04699999839 -0.2649999857 0.3930000067
0.04500000179 -0.2669999897 0.3950000107
0.04500000179 -0.2649999857 0.3950000107
0.04100000113 -0.2709999979 0.3970000148
0.04100000113 -0.2689999938 0.3970000148
0.04300000146 -0.2689999938 0.3970000148
0.04100000113 -0.2689999938 0.398999989
0.04300000146 -0.2669999897 0.3970000148
0.04300000146 -0.2669999897 0.398999989
0.04899999872 -0.2669999897 0.3849999905
0.04899999872 -0.2649999857 0.3849999905
0.04899999872 -0.2669999897 0.3869999945
0.04899999872 -0.2649999857 0.3869999945
0.04899999872 -0.2649999857 0.3889999986
0.04899999872 -0.2630000114 0.3849999905
0.05099999905 -0.2630000114 0.3849999905
0.05099999905 -0.2610000074 0.3849999905
0.04899999872 -0.2630000114 0.3869999945
0.05099999905 -0.2630000114 0.3869999945
0.04899999872 -0.2610000074 0.3869999945
0.05099999905 -0.2610000074 0.3869999945
0.05099999905 -0.2590000033 0.3849999905
0.05299999937 -0.2569999993 0.3849999905
0.04899999872 -0.2630000114 0.3889999986
0.04899999872 -0.2630000114 0.3910000026
0.03299999982 -0.275000006 0.4009999931
0.03500000015 -0.2730000019 0.4009999931
0.03299999982 -0.2730000019 0.4029999971
0.03500000015 -0.2730000019 0.4029999971
0.03299999982 -0.2730000019 0.4050000012
0.03299999982 -0.2730000019 0.4070000052
0.03700000048 -0.2709999979 0.4009999931
0.0390000008 -0.2709999979 0.4009999931
0.0390000008 -0.2689999938 0.4009999931
0.03700000048 -0.2709999979 0.4029999971
0.0390000008 -0.2689999938 0.4029999971
0.03500000015 -0.2709999979 0.4050000012
0.04100000113 -0.2689999938 0.4009999931
0.001000000047 -0.3170000017 0.4309999943
0.001000000047 -0.3129999936 0.4289999902
0.001000000047 -0.3149999976 0.4309999943
0.001000000047 -0.3129999936 0.4309999943
0.001000000047 -0.3089999855 0.4269999862
0.001000000047 -0.3050000072 0.4250000119
0.001000000047 -0.3070000112 0.4269999862
0.001000000047 -0.3050000072 0.4269999862
0.001000000047 -0.3109999895 0.4289999902
0.001000000047 -0.3089999855 0.4289999902
0.001000000047 -0.3109999895 0.4309999943
0.001000000047 -0.3089999855 0.4309999943
0.003000000026 -0.3089999855 0.4309999943
0.001000000047 -0.3070000112 0.4289999902
0.003000000026 -0.3070000112 0.4289999902
0.003000000026 -0.3050000072 0.4289999902
0.003000000026 -0.3070000112 0.4309999943
0.003000000026 -0.3050000072 0.4309999943
0.001000000047 -0.300999999 0.4189999998
0.001000000047 -0.298999995 0.4169999957
0.001000000047 -0.2969999909 0.4169999957
0.003000000026 -0.2969999909 0.4169999957
0.001000000047 -0.298999995 0.4189999998
0.003000000026 -0.2969999909 0.4189999998
0.001000000047 -0.300999999 0.4210000038
0.001000000047 -0.3030000031 0.4230000079
0.001000000047 -0.300999999 0.4230000079
0.003000000026 -0.300999999 0.4230000079
0.001000000047 -0.298999995 0.4210000038
0.003000000026 -0.298999995 0.4210000038
0.003000000026 -0.2969999909 0.4210000038
0.003000000026 -0.298999995 0.4230000079
0.003000000026 -0.2969999909 0.4230000079
0.004999999888 -0.2969999909 0.4210000038
0.004999999888 -0.2969999909 0.4230000079
0.003000000026 -0.2949999869 0.4169999957
0.003000000026 -0.2949999869 0.4189999998
0.004999999888 -0.2949999869 0.4169999957
0.004999999888 -0.2930000126 0.4169999957
0.004999999888 -0.2949999869 0.4189999998
0.004999999888 -0.2930000126 0.4189999998
0.007000000216 -0.2930000126 0.4189999998
0.004999999888 -0.2910000086 0.4169999957
0.007000000216 -0.2910000086 0.4169999957
0.007000000216 -0.2890000045 0.4169999957
0.007000000216 -0.2910000086 0.4189999998
0.004999999888 -0.2949999869 0.4210000038
0.004999999888 -0.2930000126 0.4210000038
0.007000000216 -0.2930000126 0.4210000038
0.004999999888 -0.2949999869 0.4230000079
0.007000000216 -0.2949999869 0.4230000079
0.007000000216 -0.2930000126 0.4230000079
0.007000000216 -0.2910000086 0.4210000038
0.008999999613 -0.2890000045 0.4169999957
0.008999999613 -0.2890000045 0.4189999998
0.008999999613 -0.2910000086 0.4210000038
0.008999999613 -0.2890000045 0.4210000038
0.008999999613 -0.2910000086 0.4230000079
0.008999999613 -0.2890000045 0.4230000079
0.01099999994 -0.2890000045 0.4230000079
0.001000000047 -0.3030000031 0.4250000119
0.001000000047 -0.300999999 0.4250000119
0.003000000026 -0.300999999 0.4250000119
0.003000000026 -0.3030000031 0.4269999862
0.003000000026 -0.300999999 0.4269999862
0.004999999888 -0.300999999 0.4269999862
0.003000000026 -0.298999995 0.4250000119
0.003000000026 -0.298999995 0.4269999862
0.004999999888 -0.298999995 0.4250000119
0.004999999888 -0.2969999909 0.4250000119
0.004999999888 -0.298999995 0.4269999862
0.004999999888 -0.2969999909 0.4269999862
0.007000000216 -0.2969999909 0.4269999862
0.003000000026 -0.3030000031 0.4289999902
0.004999999888 -0.3030000031 0.4289999902
0.004999999888 -0.300999999 0.4289999902
0.004999999888 -0.298999995 0.4289999902
0.004999999888 -0.2949999869 0.4250000119
0.007000000216 -0.2949999869 0.4250000119
0.007000000216 -0.2930000126 0.4250000119
0.007000000216 -0.2949999869 0.4269999862
0.008999999613 -0.2930000126 0.4250000119
0.008999999613 -0.2910000086 0.4250000119
0.001000000047 -0.3190000057 0.4329999983
0.001000000047 -0.3170000017 0.4329999983
0.001000000047 -0.3190000057 0.4350000024
0.001000000047 -0.3149999976 0.4329999983
0.001000000047 -0.3129999936 0.4329999983
0.001000000047 -0.3109999895 0.4329999983
0.003000000026 -0.3089999855 0.4329999983
0.008999999613 -0.2870000005 0.4169999957
0.01099999994 -0.2870000005 0.4169999957
0.01099999994 -0.2849999964 0.4169999957
0.008999999613 -0.2870000005 0.4189999998
0.01099999994 -0.2870000005 0.4189999998
0.01099999994 -0.2849999964 0.4189999998
0.01300000027 -0.2849999964 0.4169999957
0.01300000027 -0.2849999964 0.4189999998
0.01300000027 -0.2829999924 0.4169999957
0.01499999966 -0.2829999924 0.4169999957
0.01499999966 -0.2809999883 0.4169999957
0.01300000027 -0.2829999924 0.4189999998
0.01499999966 -0.2829999924 0.4189999998
0.01099999994 -0.2870000005 0.4210000038
0.01099999994 -0.2849999964 0.4210000038
0.01099999994 -0.2870000005 0.4230000079
0.01300000027 -0.2849999964 0.4210000038
0.01300000027 -0.2849999964 0.4230000079
0.01499999966 -0.2829999924 0.4210000038
0.01899999939 -0.2829999924 0.4169999957
0.01899999939 -0.2809999883 0.4169999957
0.01700000092 -0.2829999924 0.4189999998
0.01899999939 -0.2829999924 0.4189999998
0.02099999972 -0.2809999883 0.4169999957
0.06300000101 -0.2509999871 0.351000011
0.06100000069 -0.248999998 0.351000011
0.06300000101 -0.2529999912 0.3549999893
0.06100000069 -0.248999998 0.3529999852
0.06300000101 -0.2509999871 0.3549999893
0.06100000069 -0.248999998 0.3549999893
0.06300000101 -0.2549999952 0.3569999933
0.06100000069 -0.2529999912 0.3569999933
0.06100000069 -0.2529999912 0.3589999974
0.05900000036 -0.248999998 0.3569999933
0.05900000036 -0.2509999871 0.3589999974
0.05900000036 -0.248999998 0.3589999974
0.06100000069 -0.2509999871 0.3569999933
0.06100000069 -0.248999998 0.3569999933
0.06100000069 -0.2509999871 0.3589999974
0.05900000036 -0.2469999939 0.3529999852
0.05900000036 -0.2469999939 0.3569999933
0.05900000036 -0.2469999939 0.3589999974
0.05700000003 -0.2450000048 0.3589999974
0.05900000036 -0.2549999952 0.3630000055
0.05900000036 -0.2529999912 0.3630000055
0.06100000069 -0.2549999952 0.3610000014
0.06100000069 -0.2529999912 0.3610000014
0.05900000036 -0.2509999871 0.3610000014
0.05900000036 -0.248999998 0.3610000014
0.05900000036 -0.2509999871 0.3630000055
0.05700000003 -0.248999998 0.3630000055
0.05900000036 -0.2529999912 0.3650000095
0.05900000036 -0.2549999952 0.3670000136
0.05700000003 -0.2529999912 0.3670000136
0.05900000036 -0.2509999871 0.3650000095
0.05700000003 -0.248999998 0.3650000095
0.05700000003 -0.2509999871 0.3670000136
0.05700000003 -0.248999998 0.3670000136
0.0549999997 -0.2430000007 0.3630000055
0.0549999997 -0.2450000048 0.3650000095
0.0549999997 -0.2450000048 0.3670000136
0.0549999997 -0.2430000007 0.3650000095
0.0549999997 -0.2430000007 0.3670000136
0.05700000003 -0.2469999939 0.3610000014
0.05700000003 -0.2450000048 0.3610000014
0.05700000003 -0.2469999939 0.3630000055
0.05700000003 -0.2450000048 0.3630000055
0.05700000003 -0.2469999939 0.3650000095
0.05700000003 -0.2450000048 0.3650000095
0.05700000003 -0.2469999939 0.3670000136
0.0549999997 -0.2529999912 0.3709999919
0.0549999997 -0.2509999871 0.3709999919
0.0549999997 -0.248999998 0.3709999919
0.0549999997 -0.2549999952 0.3729999959
0.0549999997 -0.2529999912 0.3729999959
0.0549999997 -0.2549999952 0.375
0.0549999997 -0.2529999912 0.375
0.0549999997 -0.2509999871 0.3729999959
0.0549999997 -0.248999998 0.3729999959
0.0549999997 -0.2509999871 0.375
0.0549999997 -0.248999998 0.375
0.05700000003 -0.2549999952 0.3689999878
0.05700000003 -0.2529999912 0.3689999878
0.05700000003 -0.2549999952 0.3709999919
0.05700000003 -0.2529999912 0.3709999919
0.05700000003 -0.2509999871 0.3689999878
0.05700000003 -0.248999998 0.3689999878
0.05700000003 -0.2509999871 0.3709999919
0.05700000003 -0.248999998 0.3709999919
0.0549999997 -0.2469999939 0.3689999878
0.0549999997 -0.2450000048 0.3689999878
0.0549999997 -0.2469999939 0.3709999919
0.0549999997 -0.2450000048 0.3709999919
0.0549999997 -0.2430000007 0.3689999878
0.0549999997 -0.2430000007 0.3709999919
0.0549999997 -0.2469999939 0.3729999959
0.0549999997 -0.2450000048 0.3729999959
0.0549999997 -0.2469999939 0.375
0.0549999997 -0.2450000048 0.375
0.0549999997 -0.2430000007 0.3729999959
0.0549999997 -0.2549999952 0.3770000041
0.0549999997 -0.2529999912 0.3770000041
0.05299999937 -0.2549999952 0.3790000081
0.0549999997 -0.2529999912 0.3790000081
0.0549999997 -0.2509999871 0.3770000041
0.0549999997 -0.248999998 0.3770000041
0.0549999997 -0.2509999871 0.3790000081
0.0549999997 -0.248999998 0.3790000081
0.05299999937 -0.2549999952 0.3810000122
0.05299999937 -0.2529999912 0.3810000122
0.05299999937 -0.2549999952 0.3829999864
0.0549999997 -0.2469999939 0.3770000041
0.06499999762 -0.2549999952 0.351000011
0.06499999762 -0.2549999952 0.3549999893
